<svg xmlns="http://www.w3.org/2000/svg" width="121" height="121" viewBox="0 0 121 121">
  <g id="Grupo_25234" data-name="Grupo 25234" transform="translate(-297 -2420)">
    <g id="Grupo_16280" data-name="Grupo 16280" transform="translate(2558 6327)">
      <circle id="Elipse_497" data-name="Elipse 497" cx="60.5" cy="60.5" r="60.5" transform="translate(-2261 -3907)" fill="#3487ad"/>
      <path id="Trazado_1178" data-name="Trazado 1178" d="M53.993,0A53.993,53.993,0,1,1,0,53.993,53.993,53.993,0,0,1,53.993,0Z" transform="translate(-2254 -3900)" fill="#fff"/>
      <g id="Grupo_16547" data-name="Grupo 16547">
        <g id="Grupo_16546" data-name="Grupo 16546" transform="translate(-1651.057 -4630.189)">
          <path id="Trazado_39203" data-name="Trazado 39203" d="M-560.342,764.915c-.3,5.469-.608,10.935-.876,16.4-.05,1.011.427,2.209.028,3a4.957,4.957,0,0,1-2.622,2.559c-.662.166-2.431-1.232-2.516-2.052-.9-8.661-1-17.3,3.037-25.356a8.135,8.135,0,0,1,8.347-4.844,88.793,88.793,0,0,0,10.3-.011c4.464-.25,7.266,1.957,8.956,5.753,3.42,7.686,3.318,15.844,2.67,23.984-.076.963-1.918,1.785-2.94,2.673-.8-1.1-2.189-2.156-2.282-3.314-.36-4.42-.224-8.88-.44-13.316a8.98,8.98,0,0,0-1.757-4.947q0,11.952,0,23.906,0,11.446,0,22.9c0,2.934-.682,5.44-4.134,5.77-2.8.267-4.338-1.854-4.353-5.841-.034-8.267,0-16.535-.023-24.8,0-1.307-.137-2.614-.211-3.919l-.939-.06a28.835,28.835,0,0,0-.318,3.014c-.027,8.269,0,16.536-.038,24.8-.006,1.382.153,3.041-.527,4.07-.8,1.208-2.487,2.653-3.673,2.557-1.4-.115-3.031-1.533-3.89-2.831-.67-1.014-.4-2.705-.406-4.095q-.037-21.179-.024-42.356v-3.586Zm10.932,14.39c.921-1.6,2.58-3.168,2.579-4.736a66.732,66.732,0,0,0-1.356-10.934c-.1-.592-1.089-1.034-1.667-1.545-.5.571-1.319,1.079-1.443,1.721-.5,2.614-.638,5.3-1.194,7.9C-553.148,774.784-552.4,777.186-549.41,779.3Z" transform="translate(0 5.971)" fill="#37474f"/>
          <path id="Trazado_39204" data-name="Trazado 39204" d="M-553.364,758.572a7.537,7.537,0,0,1-7.258-8.063,7.735,7.735,0,0,1,7.782-7.248,7.731,7.731,0,0,1,7.452,7.965A7.5,7.5,0,0,1-553.364,758.572Z" transform="translate(3.266 0)" fill="#37474f"/>
        </g>
      </g>
    </g>
  </g>
</svg>
