<svg xmlns="http://www.w3.org/2000/svg" width="121" height="121" viewBox="0 0 121 121">
  <g id="Grupo_25235" data-name="Grupo 25235" transform="translate(-297 -2642)">
    <g id="Grupo_16281" data-name="Grupo 16281" transform="translate(2558 6549)">
      <circle id="Elipse_497" data-name="Elipse 497" cx="60.5" cy="60.5" r="60.5" transform="translate(-2261 -3907)" fill="#b2a864"/>
      <path id="Trazado_1178" data-name="Trazado 1178" d="M53.993,0A53.993,53.993,0,1,1,0,53.993,53.993,53.993,0,0,1,53.993,0Z" transform="translate(-2254 -3900)" fill="#fff"/>
      <g id="Grupo_16548" data-name="Grupo 16548" transform="translate(-2042.771 -4842.136)">
        <path id="Trazado_39205" data-name="Trazado 39205" d="M-169.521,994.379c-1.683,1.938-3.2,3.543-4.546,5.276-1.3,1.666-2.694,2.125-4.563,1.007-3.229-1.933-6.6-3.664-9.656-5.834-.9-.641-.965-2.471-1.413-3.756,1.332-.168,2.908-.873,3.948-.4a91.417,91.417,0,0,1,8.213,4.683c.267-.141.557-.194.666-.365,3.872-6.058,9.789-9.01,16.263-11.586,3.225-1.282,5.888-4.178,8.539-6.631,1.912-1.769,3.644-2.161,6.023-1.134,2.906,1.255,6.023,2.04,8.873,3.4.961.457,1.391,2.033,2.062,3.1-1.232.516-2.561,1.612-3.677,1.427a26.5,26.5,0,0,1-6.65-2.281c-2.014-.934-3.308-.379-5.043.867-3.37,2.42-3.608,4.763-2.022,8.573,3.268,7.847,6.325,15.731,12.444,21.883a7,7,0,0,0,4.057,1.968c3.511.264,7.058.064,10.59.037,2.7-.021,4.348,1.31,4.329,3.994-.017,2.551-1.738,3.725-4.2,3.755-4.827.057-9.665.259-14.475-.013a7.186,7.186,0,0,1-4.34-2.36c-2.6-2.87-4.8-6.1-7.306-9.068-.6-.706-1.768-.925-2.676-1.369-.16,1.011-.747,2.2-.416,3.007,3.6,8.855,2.631,17.41-1.342,25.851-.446.948-.59,2.034-.962,3.022-.867,2.3-2.26,4.052-5.005,3.16-2.859-.93-3.177-3.175-2.347-5.735,1.161-3.579,2.565-7.1,3.451-10.741a13.813,13.813,0,0,0,.24-6.759c-2.347-8.109-5.084-16.106-7.709-24.134A26.953,26.953,0,0,0-169.521,994.379Zm14.489,11.558c.152-1.864.9-3.87.315-5.347a57.352,57.352,0,0,0-4.776-8.574c-.3-.485-1.2-.6-1.82-.887-.286.737-.918,1.538-.8,2.2.426,2.3,1.333,4.514,1.647,6.817C-160.046,1003.192-158.479,1004.985-155.032,1005.937Z" transform="translate(0 -6.33)" fill="#37474f"/>
        <path id="Trazado_39206" data-name="Trazado 39206" d="M-160.877,981.448a7.022,7.022,0,0,1-7.045-7.19,7.217,7.217,0,0,1,7.364-6.956,7.04,7.04,0,0,1,6.794,7.09A6.9,6.9,0,0,1-160.877,981.448Zm5.435-4.24c-1.66-.821-2.653-1.656-3.031-1.436a19.926,19.926,0,0,0-3.1,2.677c.7.425,1.543,1.332,2.069,1.174C-158.345,979.276-157.343,978.393-155.441,977.208Z" transform="translate(-6.381 -4.05)" fill="#37474f"/>
        <path id="Trazado_39211" data-name="Trazado 39211" d="M-167.1,968.952a.82.82,0,0,1-.823-.84.843.843,0,0,1,.86-.813.822.822,0,0,1,.794.828A.806.806,0,0,1-167.1,968.952Zm.635-.5c-.194-.1-.31-.193-.354-.168a2.327,2.327,0,0,0-.362.313c.082.05.18.156.242.137A2.478,2.478,0,0,0-166.466,968.457Z" transform="translate(-11.664 -3.338)" fill="#37474f"/>
        <path id="Trazado_39207" data-name="Trazado 39207" d="M-150.206,962.033c.238-.776.378-1.217.507-1.662s.25-.9.46-1.658l-2.983.93c-.349-.927-.7-1.856-1.177-3.121-.711.983-1.316,1.82-2.042,2.823l-1.333-1.188-3.948,1.444.179,1.337-.642.2-2.224-4.88,4.231,1.8c.25-.916.493-1.807.84-3.077l2.682,2.508,2.761-4.02c.539,1.774.95,3.133,1.413,4.657l3.907-1.656c-.348,1.615-.625,2.9-.948,4.4l4.8.449-5.7,3.932,3.772,1.524-.528.916-3.357.726c.185-1.173.345-2.184.505-3.2l-.8-.367,3.107-2.18Z" transform="translate(-7.704 0)" fill="#37474f"/>
        <path id="Trazado_39208" data-name="Trazado 39208" d="M-179.381,957.963l-.935,2.744-1-.18c.278-1.142.278-2.495.93-3.352.438-.575,2.23-.923,2.655-.537a6.052,6.052,0,0,1,1.54,3.184,20.288,20.288,0,0,1,.057,3.92l-1.027.13q-.548-3.04-1.1-6.08Z" transform="translate(-2.456 -0.878)" fill="#37474f"/>
        <path id="Trazado_39209" data-name="Trazado 39209" d="M-143.6,1012.59c-3.447-.952-5.014-2.745-5.431-5.792-.315-2.3-1.222-4.521-1.647-6.817-.122-.661.51-1.462.8-2.2.622.286,1.523.4,1.82.887a57.349,57.349,0,0,1,4.776,8.574C-142.7,1008.72-143.45,1010.726-143.6,1012.59Z" transform="translate(-11.429 -12.983)" fill="#fff"/>
        <path id="Trazado_39210" data-name="Trazado 39210" d="M-152.809,980.7c-1.9,1.185-2.9,2.068-4.065,2.415-.525.158-1.369-.749-2.069-1.174a19.924,19.924,0,0,1,3.1-2.676C-155.462,979.048-154.469,979.884-152.809,980.7Z" transform="translate(-9.013 -7.547)" fill="#fff"/>
      </g>
    </g>
  </g>
</svg>
