<svg xmlns="http://www.w3.org/2000/svg" xmlns:xlink="http://www.w3.org/1999/xlink" width="247.691" height="242.313" viewBox="0 0 247.691 242.313">
  <defs>
    <radialGradient id="radial-gradient" cx="0.353" cy="0.228" r="0.857" gradientTransform="translate(0.045) scale(0.91 1)" gradientUnits="objectBoundingBox">
      <stop offset="0" stop-color="#828282"/>
      <stop offset="0.301" stop-color="#838384" stop-opacity="0.98"/>
      <stop offset="0.469" stop-color="#8a8a8a" stop-opacity="0.918"/>
      <stop offset="0.604" stop-color="#959696" stop-opacity="0.812"/>
      <stop offset="0.721" stop-color="#a5a6a7" stop-opacity="0.663"/>
      <stop offset="0.828" stop-color="#babbbc" stop-opacity="0.467"/>
      <stop offset="0.924" stop-color="#d3d5d6" stop-opacity="0.231"/>
      <stop offset="1" stop-color="#eceef0" stop-opacity="0"/>
    </radialGradient>
    <linearGradient id="linear-gradient" y1="0.5" x2="1" y2="0.5" gradientUnits="objectBoundingBox">
      <stop offset="0" stop-color="#48b1e2"/>
      <stop offset="0.258" stop-color="#4498c0"/>
      <stop offset="0.824" stop-color="#3a5b6a"/>
      <stop offset="1" stop-color="#37474f"/>
    </linearGradient>
    <radialGradient id="radial-gradient-2" cx="0.076" cy="0.019" r="1.465" gradientTransform="translate(0.001)" gradientUnits="objectBoundingBox">
      <stop offset="0" stop-color="#f6f6f7"/>
      <stop offset="0.477" stop-color="#f9f9fa"/>
      <stop offset="0.715" stop-color="#fff"/>
    </radialGradient>
  </defs>
  <g id="Grupo_25231" data-name="Grupo 25231" transform="translate(-888.324 -1844)">
    <path id="Trazado_38225" data-name="Trazado 38225" d="M1018.942,1409.688l60.092,60.093c2.6.215,2.8.442,5.43.016,43.983-7.123,91.391-42.849,96.169-98.885.128-1.495-.252.441-.324-1.043l-46.963-46.963Z" transform="translate(-48.313 597.229)" fill="url(#radial-gradient)"/>
    <path id="Trazado_38226" data-name="Trazado 38226" d="M1184.328,1359.9A113.253,113.253,0,0,0,1071.2,1246.771a112.073,112.073,0,0,0-68.794,23.315l3.652,4.76a106.124,106.124,0,0,1,65.142-22.075,107.125,107.125,0,0,1,0,214.25c-28.348,0-56.137-12.16-76.312-32.07H991.6c-20.14,0-36.433-6.066-47.3-17.573l14.3-19.8c9.365,7.855,19.533,12.144,28.922,12.144,14.915,0,23.82-6.2,23.82-16.578,0-14.193-9.756-19.792-35.756-20.179v-21.21c14.215-.3,31.23-3.124,31.23-19.263,0-10.248-6.538-16.126-17.936-16.126-9.646,0-16.7,3.831-24.953,10.537l-15.621-18.89c13.729-10.884,27.265-15.972,42.384-15.972,30.715,0,49.052,14.022,49.052,37.509,0,12.694-6.966,21.938-21.295,28.26l-1.789.789v5.081l2.123.649c16.435,5.022,25.486,16.219,25.486,31.529h6c0-16.292-8.488-28.617-24.058-35.214,12.968-7.27,19.533-17.707,19.533-31.094,0-13.583-5.3-24.788-15.33-32.4-9.569-7.266-23.3-11.106-39.722-11.106-17.216,0-33.1,6.3-48.548,19.258l-2.283,1.915,23.3,28.176,2.317-1.97c8.434-7.169,14.661-11.054,23.4-11.054,5.123,0,11.936,1.05,11.936,10.126,0,6.574-3.355,13.294-28.23,13.294h-3v33.157h3c32.756,0,32.756,7.874,32.756,14.2,0,9.2-11.165,10.578-17.82,10.578-8.728,0-18.454-4.54-27.385-12.783l-2.486-2.294-21.017,29.1,1.539,1.794c12.007,14.01,30.481,21.415,53.423,21.415h.7a112.69,112.69,0,0,0,42.612,26.134l37.121,22,36.821-22.419s-.224.048-.642.132A113.319,113.319,0,0,0,1184.328,1359.9Z" transform="translate(-48.313 597.229)" fill="url(#linear-gradient)"/>
    <g id="Grupo_16269" data-name="Grupo 16269" transform="translate(-48.313 597.229)">
      <g id="Grupo_16267" data-name="Grupo 16267">
        <g id="Grupo_16266" data-name="Grupo 16266">
          <g id="Grupo_16265" data-name="Grupo 16265">
            <path id="Trazado_38227" data-name="Trazado 38227" d="M1143.465,1359.793a72.258,72.258,0,1,1-72.257-72.259A72.256,72.256,0,0,1,1143.465,1359.793Z" fill="#fff"/>
          </g>
        </g>
      </g>
      <path id="Trazado_38228" data-name="Trazado 38228" d="M1143.465,1359.793a72.257,72.257,0,1,0-72.257,72.259A71.977,71.977,0,0,0,1143.465,1359.793Z" fill="url(#radial-gradient-2)"/>
      <g id="Grupo_16268" data-name="Grupo 16268">
        <path id="Trazado_38229" data-name="Trazado 38229" d="M1136.159,1328.1a72.267,72.267,0,0,1-124.409,71.959,72.037,72.037,0,0,0,124.409-71.959Z" fill="#eceef0"/>
      </g>
    </g>
    <path id="Trazado_65526" data-name="Trazado 65526" d="M27.511,14,24.982,9.652H23.929V14H22.3V4.252h3.384a3.919,3.919,0,0,1,1.364.219A2.4,2.4,0,0,1,28,5.083a2.619,2.619,0,0,1,.543.9,3.234,3.234,0,0,1,.181,1.1,2.491,2.491,0,0,1-.561,1.671,2.537,2.537,0,0,1-1.538.837L29.432,14ZM23.929,5.633v2.81H25.44a1.9,1.9,0,0,0,1.289-.373,1.3,1.3,0,0,0,.42-1.022,1.322,1.322,0,0,0-.424-1.032,1.867,1.867,0,0,0-1.285-.383Zm12.845,4.813-.021.4H31.524a2.075,2.075,0,0,0,.6,1.5,1.964,1.964,0,0,0,1.388.52,1.886,1.886,0,0,0,1.022-.28,1.767,1.767,0,0,0,.68-.8l1.436.246a3.022,3.022,0,0,1-1.189,1.545,3.416,3.416,0,0,1-1.935.554,3.526,3.526,0,0,1-2.577-.95,3.5,3.5,0,0,1-.971-2.618,3.51,3.51,0,0,1,.971-2.618,3.448,3.448,0,0,1,2.529-.957,3.274,3.274,0,0,1,2.386.878A3.463,3.463,0,0,1,36.774,10.445Zm-3.288-2.29a2.007,2.007,0,0,0-1.241.373,1.814,1.814,0,0,0-.653,1.138h3.6a1.657,1.657,0,0,0-.547-1.128A1.751,1.751,0,0,0,33.486,8.155ZM38.449,14V3.5h1.586V14Zm5.435.13a2.854,2.854,0,0,1-1.049-.181,1.668,1.668,0,0,1-.766-.615,1.83,1.83,0,0,1-.3-1.077,2,2,0,0,1,.14-.769,1.684,1.684,0,0,1,.369-.564,2.169,2.169,0,0,1,.581-.4,4.167,4.167,0,0,1,.711-.27q.359-.1.831-.188l1.039-.191q.636-.123.636-.622a.977.977,0,0,0-.383-.858,1.632,1.632,0,0,0-.964-.27,1.614,1.614,0,0,0-.991.291,1.272,1.272,0,0,0-.465.919l-1.415-.26Q42.2,7,44.82,7a4.846,4.846,0,0,1,.817.065,2.917,2.917,0,0,1,.745.236,2.143,2.143,0,0,1,.625.434,1.894,1.894,0,0,1,.417.7,2.911,2.911,0,0,1,.157.995v2.666a1.089,1.089,0,0,0,.144.656.618.618,0,0,0,.506.178h.109V14H47.6q-1.169,0-1.395-.909h-.075a2.235,2.235,0,0,1-.974.786A3.222,3.222,0,0,1,43.883,14.13Zm.369-1.237a1.829,1.829,0,0,0,1.374-.567,2.057,2.057,0,0,0,.547-1.49l-1.757.39a2.106,2.106,0,0,0-.848.318.686.686,0,0,0-.28.584.661.661,0,0,0,.267.574A1.169,1.169,0,0,0,44.252,12.893Zm8.436,1.23a3.4,3.4,0,0,1-3.562-3.568,3.453,3.453,0,0,1,1-2.577A3.826,3.826,0,0,1,54.8,7.625a2.985,2.985,0,0,1,1.152,1.767l-1.463.191a1.833,1.833,0,0,0-.673-.984,1.9,1.9,0,0,0-1.138-.342,1.8,1.8,0,0,0-1.422.632,2.435,2.435,0,0,0-.554,1.665,2.435,2.435,0,0,0,.554,1.665,1.8,1.8,0,0,0,1.422.632,1.91,1.91,0,0,0,1.138-.338,1.815,1.815,0,0,0,.673-.981l1.463.185a2.989,2.989,0,0,1-1.159,1.771A3.489,3.489,0,0,1,52.688,14.123Zm5.646-8.312a.939.939,0,0,1-.684-.284.953.953,0,0,1,0-1.36.961.961,0,0,1,1.364,0,.964.964,0,0,1-.677,1.644ZM57.528,14V7.123h1.579V14Zm6.323-7.93,1.757-2.379.8.574L64.87,6.07Zm.533,8.06a3.614,3.614,0,0,1-2.6-.967,3.438,3.438,0,0,1-1.012-2.608A3.421,3.421,0,0,1,61.78,7.96a4,4,0,0,1,5.216,0,3.419,3.419,0,0,1,1.012,2.6A3.438,3.438,0,0,1,67,13.163,3.623,3.623,0,0,1,64.384,14.13Zm-.014-1.271a1.928,1.928,0,0,0,1.49-.636,2.376,2.376,0,0,0,.581-1.668,2.363,2.363,0,0,0-.581-1.665,1.933,1.933,0,0,0-1.49-.632,1.889,1.889,0,0,0-1.463.632,2.381,2.381,0,0,0-.574,1.665,2.4,2.4,0,0,0,.571,1.668A1.881,1.881,0,0,0,64.371,12.858Zm8.955-5.865a2.545,2.545,0,0,1,1.818.619,2.3,2.3,0,0,1,.656,1.76V14H74.214V9.714a1.411,1.411,0,0,0-.379-1.083,1.375,1.375,0,0,0-.974-.352,1.607,1.607,0,0,0-1.162.434,1.8,1.8,0,0,0-.458,1.336V14H69.668V7.123h1.572v.813a2.323,2.323,0,0,1,.885-.7A2.845,2.845,0,0,1,73.326,6.993Zm15.8,0a2.417,2.417,0,0,1,1.688.571,2.072,2.072,0,0,1,.629,1.617V14H89.862V9.618a1.35,1.35,0,0,0-.342-1,1.174,1.174,0,0,0-.861-.338,1.289,1.289,0,0,0-.988.407,1.788,1.788,0,0,0-.379,1.254V14h-1.6V9.652a1.4,1.4,0,0,0-.345-1.025,1.184,1.184,0,0,0-.878-.349,1.279,1.279,0,0,0-.991.42,1.9,1.9,0,0,0-.383,1.309V14H81.529V7.123h1.565v.848a2.218,2.218,0,0,1,1.941-.978,2.607,2.607,0,0,1,1.23.277,1.822,1.822,0,0,1,.793.8A2.283,2.283,0,0,1,89.124,6.993Zm8.839.13h1.572V14h-1.5L98,13.139a2.46,2.46,0,0,1-2.119.991,2.545,2.545,0,0,1-1.818-.619,2.3,2.3,0,0,1-.656-1.76V7.123h1.586v4.286a1.411,1.411,0,0,0,.379,1.083,1.385,1.385,0,0,0,.981.352,1.6,1.6,0,0,0,1.159-.434,1.806,1.806,0,0,0,.455-1.336ZM104.142,14a1.944,1.944,0,0,1-1.449-.526,2.021,2.021,0,0,1-.52-1.483V8.354H100.8V7.123h.472a1.075,1.075,0,0,0,.81-.263,1.33,1.33,0,0,0,.25-.919V4.874h1.436V7.123h1.5v1.23h-1.5v3.473a.986.986,0,0,0,.236.714.85.85,0,0,0,.639.243h.622V14ZM111.3,7.123h1.572V14h-1.5l-.041-.861a2.46,2.46,0,0,1-2.119.991,2.545,2.545,0,0,1-1.818-.619,2.3,2.3,0,0,1-.656-1.76V7.123h1.586v4.286a1.411,1.411,0,0,0,.379,1.083,1.385,1.385,0,0,0,.981.352,1.6,1.6,0,0,0,1.159-.434,1.806,1.806,0,0,0,.455-1.336Zm5.421,7.007a2.854,2.854,0,0,1-1.049-.181,1.668,1.668,0,0,1-.766-.615,1.83,1.83,0,0,1-.3-1.077,2,2,0,0,1,.14-.769,1.684,1.684,0,0,1,.369-.564,2.169,2.169,0,0,1,.581-.4,4.167,4.167,0,0,1,.711-.27q.359-.1.831-.188l1.039-.191q.636-.123.636-.622a.977.977,0,0,0-.383-.858,1.632,1.632,0,0,0-.964-.27,1.614,1.614,0,0,0-.991.291,1.272,1.272,0,0,0-.465.919l-1.415-.26Q115.039,7,117.657,7a4.846,4.846,0,0,1,.817.065,2.917,2.917,0,0,1,.745.236,2.144,2.144,0,0,1,.625.434,1.894,1.894,0,0,1,.417.7,2.911,2.911,0,0,1,.157.995v2.666a1.089,1.089,0,0,0,.144.656.618.618,0,0,0,.506.178h.109V14h-.745q-1.169,0-1.395-.909h-.075a2.235,2.235,0,0,1-.974.786A3.222,3.222,0,0,1,116.72,14.13Zm.369-1.237a1.829,1.829,0,0,0,1.374-.567,2.057,2.057,0,0,0,.547-1.49l-1.757.39a2.106,2.106,0,0,0-.848.318.686.686,0,0,0-.28.584.661.661,0,0,0,.267.574A1.169,1.169,0,0,0,117.089,12.893Zm6.761,3.6h-1.135l.848-4.354h1.627ZM36.466,23.811a.939.939,0,0,1-.684-.284.953.953,0,0,1,0-1.36.961.961,0,0,1,1.364,0,.964.964,0,0,1-.677,1.644ZM35.66,32V25.123h1.579V32Zm7.465-7.007a2.545,2.545,0,0,1,1.818.619,2.3,2.3,0,0,1,.656,1.76V32H44.013V27.714a1.411,1.411,0,0,0-.379-1.083,1.375,1.375,0,0,0-.974-.352,1.607,1.607,0,0,0-1.162.434,1.8,1.8,0,0,0-.458,1.336V32H39.467V25.123H41.04v.813a2.323,2.323,0,0,1,.885-.7A2.845,2.845,0,0,1,43.125,24.993ZM50.07,32a1.944,1.944,0,0,1-1.449-.526,2.021,2.021,0,0,1-.52-1.483V26.354H46.727v-1.23H47.2a1.075,1.075,0,0,0,.81-.263,1.33,1.33,0,0,0,.25-.919V22.874h1.436v2.249h1.5v1.23h-1.5v3.473a.986.986,0,0,0,.236.714.85.85,0,0,0,.639.243h.622V32ZM59,28.445l-.021.4H53.748a2.075,2.075,0,0,0,.6,1.5,1.964,1.964,0,0,0,1.388.52,1.886,1.886,0,0,0,1.022-.28,1.767,1.767,0,0,0,.68-.8l1.436.246a3.022,3.022,0,0,1-1.189,1.545,3.416,3.416,0,0,1-1.935.554,3.692,3.692,0,0,1-2.577-6.187,3.448,3.448,0,0,1,2.529-.957,3.274,3.274,0,0,1,2.386.878A3.463,3.463,0,0,1,59,28.445Zm-3.288-2.29a2.007,2.007,0,0,0-1.241.373,1.814,1.814,0,0,0-.653,1.138h3.6a1.657,1.657,0,0,0-.547-1.128A1.751,1.751,0,0,0,55.709,26.155Zm6.48.123a2.077,2.077,0,0,1,.872-.875,2.719,2.719,0,0,1,1.343-.355v1.436a2.423,2.423,0,0,0-1.624.461,1.962,1.962,0,0,0-.53,1.548V32H60.672V25.123H62.19Zm5.038,5.852a2.854,2.854,0,0,1-1.049-.181,1.668,1.668,0,0,1-.766-.615,1.83,1.83,0,0,1-.3-1.077,2,2,0,0,1,.14-.769,1.684,1.684,0,0,1,.369-.564,2.169,2.169,0,0,1,.581-.4,4.167,4.167,0,0,1,.711-.27q.359-.1.831-.188l1.039-.191q.636-.123.636-.622a.977.977,0,0,0-.383-.858,1.632,1.632,0,0,0-.964-.27,1.614,1.614,0,0,0-.991.291,1.272,1.272,0,0,0-.465.919l-1.415-.26Q65.546,25,68.165,25a4.846,4.846,0,0,1,.817.065,2.917,2.917,0,0,1,.745.236,2.144,2.144,0,0,1,.625.434,1.894,1.894,0,0,1,.417.7,2.911,2.911,0,0,1,.157.995v2.666a1.089,1.089,0,0,0,.144.656.618.618,0,0,0,.506.178h.109V32H70.94q-1.169,0-1.395-.909H69.47a2.235,2.235,0,0,1-.974.786A3.222,3.222,0,0,1,67.228,32.13Zm.369-1.237a1.829,1.829,0,0,0,1.374-.567,2.057,2.057,0,0,0,.547-1.49l-1.757.39a2.106,2.106,0,0,0-.848.318.686.686,0,0,0-.28.584.661.661,0,0,0,.267.574A1.169,1.169,0,0,0,67.6,30.893Zm8.436,1.23a3.4,3.4,0,0,1-3.562-3.568,3.453,3.453,0,0,1,1-2.577,3.826,3.826,0,0,1,4.669-.352,2.985,2.985,0,0,1,1.152,1.767l-1.463.191a1.833,1.833,0,0,0-.673-.984,1.9,1.9,0,0,0-1.138-.342,1.8,1.8,0,0,0-1.422.632,2.779,2.779,0,0,0,0,3.329,1.8,1.8,0,0,0,1.422.632,1.91,1.91,0,0,0,1.138-.338,1.815,1.815,0,0,0,.673-.981l1.463.185a2.989,2.989,0,0,1-1.159,1.771A3.489,3.489,0,0,1,76.033,32.123Zm7.82,0a3.4,3.4,0,0,1-3.562-3.568,3.453,3.453,0,0,1,1-2.577,3.826,3.826,0,0,1,4.669-.352,2.985,2.985,0,0,1,1.152,1.767l-1.463.191a1.833,1.833,0,0,0-.673-.984,1.9,1.9,0,0,0-1.138-.342,1.8,1.8,0,0,0-1.422.632,2.779,2.779,0,0,0,0,3.329,1.8,1.8,0,0,0,1.422.632,1.91,1.91,0,0,0,1.138-.338,1.815,1.815,0,0,0,.673-.981l1.463.185a2.989,2.989,0,0,1-1.159,1.771A3.489,3.489,0,0,1,83.853,32.123ZM89.5,23.811a.939.939,0,0,1-.684-.284.953.953,0,0,1,0-1.36.961.961,0,0,1,1.364,0,.964.964,0,0,1-.677,1.644ZM88.693,32V25.123h1.579V32Zm6.323-7.93,1.757-2.379.8.574-1.538,1.8Zm.533,8.06a3.614,3.614,0,0,1-2.6-.967,3.438,3.438,0,0,1-1.012-2.608,3.421,3.421,0,0,1,1.012-2.594,4,4,0,0,1,5.216,0,3.419,3.419,0,0,1,1.012,2.6,3.438,3.438,0,0,1-1.012,2.608A3.623,3.623,0,0,1,95.549,32.13Zm-.014-1.271a1.928,1.928,0,0,0,1.49-.636,2.68,2.68,0,0,0,0-3.333,1.933,1.933,0,0,0-1.49-.632,1.889,1.889,0,0,0-1.463.632,2.711,2.711,0,0,0,0,3.333A1.881,1.881,0,0,0,95.536,30.858Zm8.955-5.865a2.545,2.545,0,0,1,1.818.619,2.3,2.3,0,0,1,.656,1.76V32h-1.586V27.714A1.411,1.411,0,0,0,105,26.63a1.375,1.375,0,0,0-.974-.352,1.607,1.607,0,0,0-1.162.434,1.8,1.8,0,0,0-.458,1.336V32h-1.572V25.123h1.572v.813a2.323,2.323,0,0,1,.885-.7A2.845,2.845,0,0,1,104.491,24.993Zm5.715,9.5h-1.135l.848-4.354h1.627ZM47.667,40.778h-.246q-.068,0-.232.01a1.312,1.312,0,0,0-.239.031q-.075.021-.212.065a.533.533,0,0,0-.2.106q-.065.062-.157.157a.569.569,0,0,0-.133.222,2.624,2.624,0,0,0-.075.3,2.013,2.013,0,0,0-.034.386v1.066h1.531v1.23H46.136V50H44.563V44.354H43.23v-1.23h1.333v-1.08a4.071,4.071,0,0,1,.079-.837,2.469,2.469,0,0,1,.219-.639,1.577,1.577,0,0,1,.359-.458,2.006,2.006,0,0,1,.465-.308,2.564,2.564,0,0,1,.581-.185,5.213,5.213,0,0,1,.66-.092q.325-.024.742-.024ZM55.1,46.445l-.021.4H49.848a2.075,2.075,0,0,0,.6,1.5,1.964,1.964,0,0,0,1.388.52,1.886,1.886,0,0,0,1.022-.28,1.767,1.767,0,0,0,.68-.8l1.436.246a3.022,3.022,0,0,1-1.189,1.545,3.416,3.416,0,0,1-1.935.554,3.692,3.692,0,0,1-2.577-6.187,3.448,3.448,0,0,1,2.529-.957,3.274,3.274,0,0,1,2.386.878A3.463,3.463,0,0,1,55.1,46.445Zm-3.288-2.29a2.007,2.007,0,0,0-1.241.373,1.814,1.814,0,0,0-.653,1.138h3.6a1.657,1.657,0,0,0-.547-1.128A1.751,1.751,0,0,0,51.81,44.155Zm11.2,2.29-.021.4H57.764a2.075,2.075,0,0,0,.6,1.5,1.964,1.964,0,0,0,1.388.52,1.886,1.886,0,0,0,1.022-.28,1.767,1.767,0,0,0,.68-.8l1.436.246A3.022,3.022,0,0,1,61.7,49.576a3.416,3.416,0,0,1-1.935.554,3.692,3.692,0,0,1-2.577-6.187,3.448,3.448,0,0,1,2.529-.957,3.274,3.274,0,0,1,2.386.878A3.463,3.463,0,0,1,63.014,46.445Zm-3.288-2.29a2.007,2.007,0,0,0-1.241.373,1.814,1.814,0,0,0-.653,1.138h3.6a1.657,1.657,0,0,0-.547-1.128A1.751,1.751,0,0,0,59.726,44.155ZM69.658,39.5H71.23V50h-1.5l-.041-1.094a2.213,2.213,0,0,1-.919.916,2.806,2.806,0,0,1-1.371.335,3.186,3.186,0,0,1-2.3-.96,3.264,3.264,0,0,1-.7-1.135,4.154,4.154,0,0,1-.26-1.494,4.107,4.107,0,0,1,.26-1.483,3.27,3.27,0,0,1,.7-1.131,3.2,3.2,0,0,1,2.3-.96,2.843,2.843,0,0,1,1.343.318,2.209,2.209,0,0,1,.919.872Zm-3.367,8.7a1.912,1.912,0,0,0,1.453.622,1.882,1.882,0,0,0,1.449-.636,2.534,2.534,0,0,0,0-3.233,1.885,1.885,0,0,0-1.446-.636,1.917,1.917,0,0,0-1.453.619,2.571,2.571,0,0,0,0,3.264ZM77.3,42.993a3.181,3.181,0,0,1,1.258.253,3.137,3.137,0,0,1,1.036.708,3.3,3.3,0,0,1,.7,1.131,4.107,4.107,0,0,1,.26,1.483,4.2,4.2,0,0,1-.256,1.494,3.225,3.225,0,0,1-.7,1.135,3.186,3.186,0,0,1-2.3.96,2.817,2.817,0,0,1-1.381-.338A2.186,2.186,0,0,1,75,48.9L74.963,50h-1.5V39.5h1.565l.007,4.7a2.188,2.188,0,0,1,.916-.885A2.852,2.852,0,0,1,77.3,42.993Zm-1.8,5.2a1.882,1.882,0,0,0,1.449.636A1.912,1.912,0,0,0,78.4,48.2a2.571,2.571,0,0,0,0-3.264,1.917,1.917,0,0,0-1.453-.619,1.885,1.885,0,0,0-1.446.636,2.534,2.534,0,0,0,0,3.233ZM83.85,50.13a2.854,2.854,0,0,1-1.049-.181,1.668,1.668,0,0,1-.766-.615,1.83,1.83,0,0,1-.3-1.077,2,2,0,0,1,.14-.769,1.684,1.684,0,0,1,.369-.564,2.169,2.169,0,0,1,.581-.4,4.167,4.167,0,0,1,.711-.27q.359-.1.831-.188l1.039-.191q.636-.123.636-.622a.977.977,0,0,0-.383-.858,1.632,1.632,0,0,0-.964-.27,1.614,1.614,0,0,0-.991.291,1.272,1.272,0,0,0-.465.919l-1.415-.26Q82.168,43,84.786,43a4.846,4.846,0,0,1,.817.065,2.917,2.917,0,0,1,.745.236,2.144,2.144,0,0,1,.625.434,1.894,1.894,0,0,1,.417.7,2.911,2.911,0,0,1,.157.995v2.666a1.088,1.088,0,0,0,.144.656.618.618,0,0,0,.506.178h.109V50h-.745q-1.169,0-1.395-.909h-.075a2.235,2.235,0,0,1-.974.786A3.222,3.222,0,0,1,83.85,50.13Zm.369-1.237a1.829,1.829,0,0,0,1.374-.567,2.057,2.057,0,0,0,.547-1.49l-1.757.39a2.106,2.106,0,0,0-.848.318.686.686,0,0,0-.28.584.661.661,0,0,0,.267.574A1.169,1.169,0,0,0,84.219,48.893Zm8.436,1.23a3.4,3.4,0,0,1-3.562-3.568,3.453,3.453,0,0,1,1-2.577,3.826,3.826,0,0,1,4.669-.352,2.985,2.985,0,0,1,1.152,1.767l-1.463.191a1.833,1.833,0,0,0-.673-.984,1.9,1.9,0,0,0-1.138-.342,1.8,1.8,0,0,0-1.422.632,2.779,2.779,0,0,0,0,3.329,1.8,1.8,0,0,0,1.422.632,1.91,1.91,0,0,0,1.138-.338,1.815,1.815,0,0,0,.673-.981l1.463.185a2.989,2.989,0,0,1-1.159,1.771A3.489,3.489,0,0,1,92.654,50.123Zm9.3-.123-2.4-3.028H99.08V50H97.494V39.5H99.08v6.337h.438l2.276-2.714h1.812l-2.741,3.172L103.913,50Z" transform="translate(951.635 1935.156)" fill="#00223d"/>
  </g>
</svg>
