<svg xmlns="http://www.w3.org/2000/svg" xmlns:xlink="http://www.w3.org/1999/xlink" width="251.419" height="242.313" viewBox="0 0 251.419 242.313">
  <defs>
    <radialGradient id="radial-gradient" cx="0.353" cy="0.228" r="0.857" gradientTransform="translate(0.045) scale(0.91 1)" gradientUnits="objectBoundingBox">
      <stop offset="0" stop-color="#828282"/>
      <stop offset="0.301" stop-color="#838384" stop-opacity="0.98"/>
      <stop offset="0.469" stop-color="#8a8a8a" stop-opacity="0.918"/>
      <stop offset="0.604" stop-color="#959696" stop-opacity="0.812"/>
      <stop offset="0.721" stop-color="#a5a6a7" stop-opacity="0.663"/>
      <stop offset="0.828" stop-color="#babbbc" stop-opacity="0.467"/>
      <stop offset="0.924" stop-color="#d3d5d6" stop-opacity="0.231"/>
      <stop offset="1" stop-color="#eceef0" stop-opacity="0"/>
    </radialGradient>
    <linearGradient id="linear-gradient" y1="0.5" x2="1" y2="0.5" gradientUnits="objectBoundingBox">
      <stop offset="0" stop-color="#325a6a"/>
      <stop offset="0.293" stop-color="#536e68"/>
      <stop offset="0.937" stop-color="#a9a264"/>
      <stop offset="1" stop-color="#b2a864"/>
    </linearGradient>
    <radialGradient id="radial-gradient-2" cx="0.076" cy="0.019" r="1.465" gradientTransform="translate(0.001)" gradientUnits="objectBoundingBox">
      <stop offset="0" stop-color="#f6f6f7"/>
      <stop offset="0.477" stop-color="#f9f9fa"/>
      <stop offset="0.715" stop-color="#fff"/>
    </radialGradient>
  </defs>
  <g id="Grupo_25232" data-name="Grupo 25232" transform="translate(-553.996 -1844)">
    <path id="Trazado_38220" data-name="Trazado 38220" d="M688.342,1409.688l60.092,60.093c2.6.215,2.8.442,5.43.016,43.983-7.123,91.391-42.849,96.169-98.885.128-1.495-.252.441-.324-1.043l-46.963-46.963Z" transform="translate(-48.313 597.229)" fill="url(#radial-gradient)"/>
    <path id="Trazado_38221" data-name="Trazado 38221" d="M853.728,1359.9A113.253,113.253,0,0,0,740.6,1246.771a112.081,112.081,0,0,0-68.778,23.3l3.652,4.762a106.125,106.125,0,0,1,65.126-22.063,107.125,107.125,0,0,1,0,214.25c-29.563,0-58.9-13.172-79.092-34.785H611.3v-17.862c34.955-32.157,60.2-55.406,60.2-76,0-13.782-7.721-22.01-20.652-22.01-9.95,0-17.655,6.595-23.529,12.344l-16.625-16.624c14.361-14.567,26.969-20.045,45.585-20.045,27.715,0,46.336,17.711,46.336,44.072,0,22.138-21.555,47.033-40.334,66.248l-6,6.137,8.515-1.063a227.743,227.743,0,0,1,23.617-1.786H709.4v29.588h6v-35.588H688.414c-4.367,0-10.45.409-16.114.94,17.976-19.09,36.314-42.518,36.314-64.476,0-14.737-5.1-27.329-14.749-36.413-9.49-8.936-22.488-13.659-37.587-13.659-21.1,0-35.669,6.736-51.971,24.025l-2,2.12,25,25,2.121-2.122c6.948-6.948,13.356-12.7,21.415-12.7,9.585,0,14.652,5.536,14.652,16.01,0,17.986-25.769,41.692-58.393,71.706l-1.8,1.66v26.495h53.707a113.507,113.507,0,0,0,46.327,29.1l36.7,21.748,36.821-22.419s-.693.149-1.965.387A113.326,113.326,0,0,0,853.728,1359.9Z" transform="translate(-48.313 597.229)" fill="url(#linear-gradient)"/>
    <g id="Grupo_16262" data-name="Grupo 16262" transform="translate(-48.313 597.229)">
      <g id="Grupo_16261" data-name="Grupo 16261">
        <g id="Grupo_16259" data-name="Grupo 16259">
          <g id="Grupo_16258" data-name="Grupo 16258">
            <g id="Grupo_16257" data-name="Grupo 16257">
              <path id="Trazado_38222" data-name="Trazado 38222" d="M812.865,1359.793a72.258,72.258,0,1,1-72.257-72.259A72.256,72.256,0,0,1,812.865,1359.793Z" fill="#fff"/>
            </g>
          </g>
        </g>
        <path id="Trazado_38223" data-name="Trazado 38223" d="M812.865,1359.793a72.257,72.257,0,1,0-72.257,72.259A71.977,71.977,0,0,0,812.865,1359.793Z" fill="url(#radial-gradient-2)"/>
        <g id="Grupo_16260" data-name="Grupo 16260">
          <path id="Trazado_38224" data-name="Trazado 38224" d="M805.559,1328.1a72.267,72.267,0,0,1-124.409,71.959A72.037,72.037,0,0,0,805.559,1328.1Z" fill="#eceef0"/>
        </g>
      </g>
    </g>
    <path id="Trazado_65525" data-name="Trazado 65525" d="M25.486,14,22.957,9.652H21.9V14H20.27V4.252h3.384a3.919,3.919,0,0,1,1.364.219,2.4,2.4,0,0,1,.954.612,2.619,2.619,0,0,1,.543.9,3.234,3.234,0,0,1,.181,1.1,2.491,2.491,0,0,1-.561,1.671,2.537,2.537,0,0,1-1.538.837L27.407,14ZM21.9,5.633v2.81h1.511A1.9,1.9,0,0,0,24.7,8.07a1.3,1.3,0,0,0,.42-1.022A1.322,1.322,0,0,0,24.7,6.016a1.867,1.867,0,0,0-1.285-.383Zm12.845,4.813-.021.4H29.5a2.075,2.075,0,0,0,.6,1.5,1.964,1.964,0,0,0,1.388.52,1.886,1.886,0,0,0,1.022-.28,1.767,1.767,0,0,0,.68-.8l1.436.246a3.022,3.022,0,0,1-1.189,1.545,3.416,3.416,0,0,1-1.935.554,3.526,3.526,0,0,1-2.577-.95,3.5,3.5,0,0,1-.971-2.618,3.51,3.51,0,0,1,.971-2.618,3.448,3.448,0,0,1,2.529-.957,3.274,3.274,0,0,1,2.386.878A3.463,3.463,0,0,1,34.749,10.445Zm-3.288-2.29a2.007,2.007,0,0,0-1.241.373,1.814,1.814,0,0,0-.653,1.138h3.6a1.657,1.657,0,0,0-.547-1.128A1.751,1.751,0,0,0,31.461,8.155ZM39.4,14.123a3.4,3.4,0,0,1-3.562-3.568,3.453,3.453,0,0,1,1-2.577,3.826,3.826,0,0,1,4.669-.352,2.985,2.985,0,0,1,1.152,1.767L41.2,9.584a1.833,1.833,0,0,0-.673-.984,1.9,1.9,0,0,0-1.138-.342,1.8,1.8,0,0,0-1.422.632,2.435,2.435,0,0,0-.554,1.665,2.435,2.435,0,0,0,.554,1.665,1.8,1.8,0,0,0,1.422.632,1.91,1.91,0,0,0,1.138-.338,1.815,1.815,0,0,0,.673-.981l1.463.185a2.989,2.989,0,0,1-1.159,1.771A3.489,3.489,0,0,1,39.4,14.123Zm11.081-3.678-.021.4H45.235a2.075,2.075,0,0,0,.6,1.5,1.964,1.964,0,0,0,1.388.52,1.886,1.886,0,0,0,1.022-.28,1.767,1.767,0,0,0,.68-.8l1.436.246a3.022,3.022,0,0,1-1.189,1.545,3.416,3.416,0,0,1-1.935.554,3.526,3.526,0,0,1-2.577-.95,3.5,3.5,0,0,1-.971-2.618,3.51,3.51,0,0,1,.971-2.618,3.448,3.448,0,0,1,2.529-.957,3.274,3.274,0,0,1,2.386.878A3.463,3.463,0,0,1,50.485,10.445ZM47.2,8.155a2.007,2.007,0,0,0-1.241.373A1.814,1.814,0,0,0,45.3,9.666h3.6a1.657,1.657,0,0,0-.547-1.128A1.751,1.751,0,0,0,47.2,8.155Zm8.8-1.162a3.2,3.2,0,0,1,1.63.424A3.091,3.091,0,0,1,58.8,8.665a3.948,3.948,0,0,1,.444,1.9,4.224,4.224,0,0,1-.256,1.5,3.225,3.225,0,0,1-.7,1.135,3.14,3.14,0,0,1-1.036.7,3.211,3.211,0,0,1-1.261.25,2.819,2.819,0,0,1-1.343-.321,2.217,2.217,0,0,1-.919-.882V17.4H52.16V7.123h1.5L53.7,8.244a2.182,2.182,0,0,1,.919-.919A2.83,2.83,0,0,1,55.995,6.993Zm-.342,5.831a1.9,1.9,0,0,0,1.442-.615,2.292,2.292,0,0,0,.581-1.641A2.267,2.267,0,0,0,57.1,8.935a2,2,0,0,0-2.9.024,2.271,2.271,0,0,0-.588,1.61,2.293,2.293,0,0,0,.588,1.62A1.9,1.9,0,0,0,55.653,12.824ZM63.309,14a1.944,1.944,0,0,1-1.449-.526,2.021,2.021,0,0,1-.52-1.483V8.354H59.966V7.123h.472a1.075,1.075,0,0,0,.81-.263,1.33,1.33,0,0,0,.25-.919V4.874h1.436V7.123h1.5v1.23h-1.5v3.473a.986.986,0,0,0,.236.714.85.85,0,0,0,.639.243h.622V14Zm5.735.13a3.614,3.614,0,0,1-2.6-.967,3.438,3.438,0,0,1-1.012-2.608A3.421,3.421,0,0,1,66.44,7.96a4,4,0,0,1,5.216,0,3.419,3.419,0,0,1,1.012,2.6,3.438,3.438,0,0,1-1.012,2.608A3.623,3.623,0,0,1,69.044,14.13Zm-.014-1.271a1.928,1.928,0,0,0,1.49-.636,2.376,2.376,0,0,0,.581-1.668,2.363,2.363,0,0,0-.581-1.665,1.933,1.933,0,0,0-1.49-.632,1.889,1.889,0,0,0-1.463.632,2.381,2.381,0,0,0-.574,1.665,2.4,2.4,0,0,0,.571,1.668A1.881,1.881,0,0,0,69.031,12.858Zm6.815-4.58a2.077,2.077,0,0,1,.872-.875,2.719,2.719,0,0,1,1.343-.355V8.483a2.423,2.423,0,0,0-1.624.461,1.962,1.962,0,0,0-.53,1.548V14H74.329V7.123h1.518ZM86.018,14.13a3.614,3.614,0,0,1-2.6-.967A3.438,3.438,0,0,1,82.4,10.555,3.421,3.421,0,0,1,83.414,7.96a4,4,0,0,1,5.216,0,3.419,3.419,0,0,1,1.012,2.6,3.438,3.438,0,0,1-1.012,2.608A3.623,3.623,0,0,1,86.018,14.13ZM86,12.858a1.928,1.928,0,0,0,1.49-.636,2.376,2.376,0,0,0,.581-1.668,2.363,2.363,0,0,0-.581-1.665A1.933,1.933,0,0,0,86,8.258a1.889,1.889,0,0,0-1.463.632,2.381,2.381,0,0,0-.574,1.665,2.4,2.4,0,0,0,.571,1.668A1.881,1.881,0,0,0,86,12.858ZM15.731,32.123a3.4,3.4,0,0,1-3.562-3.568,3.453,3.453,0,0,1,1-2.577,3.5,3.5,0,0,1,2.56-.984,3.494,3.494,0,0,1,2.109.632,2.985,2.985,0,0,1,1.152,1.767l-1.463.191a1.833,1.833,0,0,0-.673-.984,1.9,1.9,0,0,0-1.138-.342,1.8,1.8,0,0,0-1.422.632,2.779,2.779,0,0,0,0,3.329,1.8,1.8,0,0,0,1.422.632,1.91,1.91,0,0,0,1.138-.338,1.815,1.815,0,0,0,.673-.981l1.463.185a2.989,2.989,0,0,1-1.159,1.771A3.489,3.489,0,0,1,15.731,32.123Zm7.889.007a3.614,3.614,0,0,1-2.6-.967A3.438,3.438,0,0,1,20,28.555a3.421,3.421,0,0,1,1.012-2.594,3.614,3.614,0,0,1,2.6-.967,3.631,3.631,0,0,1,2.611.964,3.419,3.419,0,0,1,1.012,2.6,3.438,3.438,0,0,1-1.012,2.608A3.623,3.623,0,0,1,23.62,32.13Zm-.014-1.271a1.928,1.928,0,0,0,1.49-.636,2.68,2.68,0,0,0,0-3.333,1.933,1.933,0,0,0-1.49-.632,1.889,1.889,0,0,0-1.463.632,2.711,2.711,0,0,0,0,3.333A1.881,1.881,0,0,0,23.606,30.858ZM36.5,24.993a2.417,2.417,0,0,1,1.688.571,2.072,2.072,0,0,1,.629,1.617V32H37.237V27.618a1.35,1.35,0,0,0-.342-1,1.174,1.174,0,0,0-.861-.338,1.289,1.289,0,0,0-.988.407,1.788,1.788,0,0,0-.379,1.254V32h-1.6V27.652a1.4,1.4,0,0,0-.345-1.025,1.184,1.184,0,0,0-.878-.349,1.279,1.279,0,0,0-.991.42,1.9,1.9,0,0,0-.383,1.309V32H28.9V25.123h1.565v.848a2.218,2.218,0,0,1,1.941-.978,2.607,2.607,0,0,1,1.23.277,1.822,1.822,0,0,1,.793.8A2.283,2.283,0,0,1,36.5,24.993Zm8.839.13H46.91V32h-1.5l-.041-.861a2.46,2.46,0,0,1-2.119.991,2.545,2.545,0,0,1-1.818-.619,2.3,2.3,0,0,1-.656-1.76V25.123h1.586v4.286a1.411,1.411,0,0,0,.379,1.083,1.385,1.385,0,0,0,.981.352,1.6,1.6,0,0,0,1.159-.434,1.806,1.806,0,0,0,.455-1.336Zm7.458-.13a2.545,2.545,0,0,1,1.818.619,2.3,2.3,0,0,1,.656,1.76V32H53.684V27.714A1.411,1.411,0,0,0,53.3,26.63a1.375,1.375,0,0,0-.974-.352,1.607,1.607,0,0,0-1.162.434,1.8,1.8,0,0,0-.458,1.336V32H49.138V25.123h1.572v.813a2.323,2.323,0,0,1,.885-.7A2.845,2.845,0,0,1,52.8,24.993Zm5.373-1.183a.939.939,0,0,1-.684-.284.953.953,0,0,1,0-1.36.961.961,0,0,1,1.364,0,.964.964,0,0,1-.677,1.644ZM57.362,32V25.123h1.579V32Zm6.788.123a3.4,3.4,0,0,1-3.562-3.568,3.453,3.453,0,0,1,1-2.577,3.826,3.826,0,0,1,4.669-.352,2.985,2.985,0,0,1,1.152,1.767l-1.463.191a1.833,1.833,0,0,0-.673-.984,1.9,1.9,0,0,0-1.138-.342,1.8,1.8,0,0,0-1.422.632,2.779,2.779,0,0,0,0,3.329,1.8,1.8,0,0,0,1.422.632,1.91,1.91,0,0,0,1.138-.338,1.815,1.815,0,0,0,.673-.981l1.463.185a2.989,2.989,0,0,1-1.159,1.771A3.489,3.489,0,0,1,64.15,32.123Zm6.46.007a2.854,2.854,0,0,1-1.049-.181,1.668,1.668,0,0,1-.766-.615,1.83,1.83,0,0,1-.3-1.077,2,2,0,0,1,.14-.769A1.684,1.684,0,0,1,69,28.924a2.169,2.169,0,0,1,.581-.4,4.167,4.167,0,0,1,.711-.27q.359-.1.831-.188l1.039-.191q.636-.123.636-.622a.977.977,0,0,0-.383-.858,1.632,1.632,0,0,0-.964-.27,1.614,1.614,0,0,0-.991.291,1.272,1.272,0,0,0-.465.919l-1.415-.26Q68.928,25,71.546,25a4.846,4.846,0,0,1,.817.065,2.917,2.917,0,0,1,.745.236,2.144,2.144,0,0,1,.625.434,1.894,1.894,0,0,1,.417.7,2.911,2.911,0,0,1,.157.995v2.666a1.089,1.089,0,0,0,.144.656.618.618,0,0,0,.506.178h.109V32h-.745q-1.169,0-1.395-.909h-.075a2.235,2.235,0,0,1-.974.786A3.222,3.222,0,0,1,70.61,32.13Zm.369-1.237a1.829,1.829,0,0,0,1.374-.567,2.057,2.057,0,0,0,.547-1.49l-1.757.39a2.106,2.106,0,0,0-.848.318.686.686,0,0,0-.28.584.661.661,0,0,0,.267.574A1.169,1.169,0,0,0,70.979,30.893ZM81.4,21.5h1.572V32h-1.5l-.041-1.094a2.213,2.213,0,0,1-.919.916,2.806,2.806,0,0,1-1.371.335,3.186,3.186,0,0,1-2.3-.96,3.264,3.264,0,0,1-.7-1.135,4.154,4.154,0,0,1-.26-1.494,4.107,4.107,0,0,1,.26-1.483,3.27,3.27,0,0,1,.7-1.131,3.2,3.2,0,0,1,2.3-.96,2.843,2.843,0,0,1,1.343.318,2.209,2.209,0,0,1,.919.872Zm-3.367,8.7a1.912,1.912,0,0,0,1.453.622,1.882,1.882,0,0,0,1.449-.636,2.534,2.534,0,0,0,0-3.233,1.885,1.885,0,0,0-1.446-.636,1.917,1.917,0,0,0-1.453.619,2.571,2.571,0,0,0,0,3.264ZM88.253,32.13a3.614,3.614,0,0,1-2.6-.967,3.438,3.438,0,0,1-1.012-2.608,3.421,3.421,0,0,1,1.012-2.594,4,4,0,0,1,5.216,0,3.419,3.419,0,0,1,1.012,2.6,3.438,3.438,0,0,1-1.012,2.608A3.623,3.623,0,0,1,88.253,32.13Zm-.014-1.271a1.928,1.928,0,0,0,1.49-.636,2.68,2.68,0,0,0,0-3.333,1.933,1.933,0,0,0-1.49-.632,1.889,1.889,0,0,0-1.463.632,2.711,2.711,0,0,0,0,3.333A1.881,1.881,0,0,0,88.24,30.858Zm6.815-4.58a2.077,2.077,0,0,1,.872-.875,2.719,2.719,0,0,1,1.343-.355v1.436a2.423,2.423,0,0,0-1.624.461,1.962,1.962,0,0,0-.53,1.548V32H93.538V25.123h1.518Z" transform="translate(640.029 1944.156)" fill="#00223d"/>
  </g>
</svg>
