<svg xmlns="http://www.w3.org/2000/svg" xmlns:xlink="http://www.w3.org/1999/xlink" width="245.803" height="242.313" viewBox="0 0 245.803 242.313">
  <defs>
    <radialGradient id="radial-gradient" cx="0.353" cy="0.228" r="0.857" gradientTransform="translate(0.045) scale(0.91 1)" gradientUnits="objectBoundingBox">
      <stop offset="0" stop-color="#828282"/>
      <stop offset="0.301" stop-color="#838384" stop-opacity="0.98"/>
      <stop offset="0.469" stop-color="#8a8a8a" stop-opacity="0.918"/>
      <stop offset="0.604" stop-color="#959696" stop-opacity="0.812"/>
      <stop offset="0.721" stop-color="#a5a6a7" stop-opacity="0.663"/>
      <stop offset="0.828" stop-color="#babbbc" stop-opacity="0.467"/>
      <stop offset="0.924" stop-color="#d3d5d6" stop-opacity="0.231"/>
      <stop offset="1" stop-color="#eceef0" stop-opacity="0"/>
    </radialGradient>
    <linearGradient id="linear-gradient" y1="0.5" x2="1" y2="0.5" gradientUnits="objectBoundingBox">
      <stop offset="0" stop-color="#325a6a"/>
      <stop offset="0.529" stop-color="#33708b"/>
      <stop offset="1" stop-color="#3487ad"/>
    </linearGradient>
    <radialGradient id="radial-gradient-2" cx="0.076" cy="0.019" r="1.465" gradientTransform="translate(0.001)" gradientUnits="objectBoundingBox">
      <stop offset="0" stop-color="#f6f6f7"/>
      <stop offset="0.477" stop-color="#f9f9fa"/>
      <stop offset="0.715" stop-color="#fff"/>
    </radialGradient>
  </defs>
  <g id="Grupo_25233" data-name="Grupo 25233" transform="translate(-229 -1844)">
    <path id="Trazado_38215" data-name="Trazado 38215" d="M357.364,1409.688l60.093,60.093c2.6.215,2.8.442,5.429.016,43.983-7.123,91.391-42.849,96.17-98.885.127-1.495-.253.441-.324-1.043l-46.964-46.963Z" transform="translate(-48.313 597.229)" fill="url(#radial-gradient)"/>
    <path id="Trazado_38216" data-name="Trazado 38216" d="M523.116,1359.9a113.128,113.128,0,0,0-186.376-86.21l3.887,4.57a107.121,107.121,0,1,1-9.66,153.98H283.313v-25.231h30.778v-80.229H286.934v-18.532c14.527-3.011,24.7-6.9,35.422-13.489h24.66v112.25h28.8v-6h-22.8v-112.25H320.641l-.729.456c-10.9,6.815-21.151,10.636-36.551,13.631l-2.427.472v29.462h27.157v68.229H277.313v37.231h51.079a113.425,113.425,0,0,0,44.331,28.429l37.829,22.419,36.821-22.419h0A113.317,113.317,0,0,0,523.116,1359.9Z" transform="translate(-48.313 597.229)" fill="url(#linear-gradient)"/>
    <g id="Grupo_16249" data-name="Grupo 16249" transform="translate(-48.313 597.229)">
      <path id="Trazado_38217" data-name="Trazado 38217" d="M481.888,1359.793a72.258,72.258,0,1,1-72.257-72.259A72.257,72.257,0,0,1,481.888,1359.793Z" fill="#fff"/>
    </g>
    <path id="Trazado_38218" data-name="Trazado 38218" d="M481.888,1359.793a72.257,72.257,0,1,0-72.257,72.259A71.982,71.982,0,0,0,481.888,1359.793Z" transform="translate(-48.313 597.229)" fill="url(#radial-gradient-2)"/>
    <path id="Trazado_38219" data-name="Trazado 38219" d="M474.582,1328.1a72.267,72.267,0,0,1-124.409,71.959A72.037,72.037,0,0,0,474.582,1328.1Z" transform="translate(-48.313 597.229)" fill="#eceef0"/>
    <path id="Trazado_65524" data-name="Trazado 65524" d="M15.888,14.13a5.34,5.34,0,0,1-1.952-.352,4.622,4.622,0,0,1-1.562-.988,4.458,4.458,0,0,1-1.032-1.583,5.611,5.611,0,0,1-.376-2.088,5.313,5.313,0,0,1,.646-2.656,4.385,4.385,0,0,1,1.76-1.747,5.21,5.21,0,0,1,2.516-.6,5.065,5.065,0,0,1,2.728.738A4.3,4.3,0,0,1,20.352,6.9l-1.524.581a2.915,2.915,0,0,0-1.159-1.354,3.309,3.309,0,0,0-1.781-.485,3.464,3.464,0,0,0-1.292.239,3.112,3.112,0,0,0-1.046.677,3.042,3.042,0,0,0-.7,1.1A4.066,4.066,0,0,0,12.6,9.119a4.122,4.122,0,0,0,.253,1.473,3.032,3.032,0,0,0,.7,1.1,3.069,3.069,0,0,0,1.046.673,3.508,3.508,0,0,0,1.292.236,3.322,3.322,0,0,0,1.784-.482,2.9,2.9,0,0,0,1.155-1.35l1.524.581A4.29,4.29,0,0,1,18.619,13.4,5.078,5.078,0,0,1,15.888,14.13Zm9.119,0a3.614,3.614,0,0,1-2.6-.967,3.438,3.438,0,0,1-1.012-2.608A3.421,3.421,0,0,1,22.4,7.96a3.614,3.614,0,0,1,2.6-.967,3.631,3.631,0,0,1,2.611.964,3.419,3.419,0,0,1,1.012,2.6,3.438,3.438,0,0,1-1.012,2.608A3.623,3.623,0,0,1,25.007,14.13Zm-.014-1.271a1.928,1.928,0,0,0,1.49-.636,2.376,2.376,0,0,0,.581-1.668,2.363,2.363,0,0,0-.581-1.665,1.933,1.933,0,0,0-1.49-.632,1.889,1.889,0,0,0-1.463.632,2.381,2.381,0,0,0-.574,1.665,2.4,2.4,0,0,0,.571,1.668A1.881,1.881,0,0,0,24.994,12.858ZM37.886,6.993a2.417,2.417,0,0,1,1.688.571A2.072,2.072,0,0,1,40.2,9.181V14H38.625V9.618a1.35,1.35,0,0,0-.342-1,1.174,1.174,0,0,0-.861-.338,1.289,1.289,0,0,0-.988.407,1.788,1.788,0,0,0-.379,1.254V14h-1.6V9.652a1.4,1.4,0,0,0-.345-1.025,1.184,1.184,0,0,0-.878-.349,1.279,1.279,0,0,0-.991.42,1.9,1.9,0,0,0-.383,1.309V14H30.292V7.123h1.565v.848A2.218,2.218,0,0,1,33.8,6.993a2.607,2.607,0,0,1,1.23.277,1.822,1.822,0,0,1,.793.8A2.283,2.283,0,0,1,37.886,6.993Zm8.839.13H48.3V14H46.8l-.041-.861a2.46,2.46,0,0,1-2.119.991,2.545,2.545,0,0,1-1.818-.619,2.3,2.3,0,0,1-.656-1.76V7.123h1.586v4.286a1.411,1.411,0,0,0,.379,1.083,1.385,1.385,0,0,0,.981.352,1.6,1.6,0,0,0,1.159-.434,1.806,1.806,0,0,0,.455-1.336Zm7.458-.13A2.545,2.545,0,0,1,56,7.612a2.3,2.3,0,0,1,.656,1.76V14H55.072V9.714a1.411,1.411,0,0,0-.379-1.083,1.375,1.375,0,0,0-.974-.352,1.607,1.607,0,0,0-1.162.434,1.8,1.8,0,0,0-.458,1.336V14H50.526V7.123H52.1v.813a2.323,2.323,0,0,1,.885-.7A2.845,2.845,0,0,1,54.183,6.993Zm5.373-1.183a.939.939,0,0,1-.684-.284.953.953,0,0,1,0-1.36.961.961,0,0,1,1.364,0,.964.964,0,0,1-.677,1.644ZM58.75,14V7.123h1.579V14Zm6.788.123a3.4,3.4,0,0,1-3.562-3.568,3.453,3.453,0,0,1,1-2.577,3.826,3.826,0,0,1,4.669-.352A2.985,2.985,0,0,1,68.8,9.393l-1.463.191a1.833,1.833,0,0,0-.673-.984,1.9,1.9,0,0,0-1.138-.342A1.8,1.8,0,0,0,64.1,8.89a2.435,2.435,0,0,0-.554,1.665,2.435,2.435,0,0,0,.554,1.665,1.8,1.8,0,0,0,1.422.632,1.91,1.91,0,0,0,1.138-.338,1.815,1.815,0,0,0,.673-.981l1.463.185a2.989,2.989,0,0,1-1.159,1.771A3.489,3.489,0,0,1,65.538,14.123ZM72,14.13a2.854,2.854,0,0,1-1.049-.181,1.668,1.668,0,0,1-.766-.615,1.83,1.83,0,0,1-.3-1.077,2,2,0,0,1,.14-.769,1.684,1.684,0,0,1,.369-.564,2.169,2.169,0,0,1,.581-.4,4.167,4.167,0,0,1,.711-.27q.359-.1.831-.188l1.039-.191q.636-.123.636-.622A.977.977,0,0,0,73.8,8.4a1.632,1.632,0,0,0-.964-.27,1.614,1.614,0,0,0-.991.291,1.272,1.272,0,0,0-.465.919l-1.415-.26Q70.316,7,72.934,7a4.846,4.846,0,0,1,.817.065A2.917,2.917,0,0,1,74.5,7.3a2.144,2.144,0,0,1,.625.434,1.894,1.894,0,0,1,.417.7,2.911,2.911,0,0,1,.157.995v2.666a1.089,1.089,0,0,0,.144.656.618.618,0,0,0,.506.178h.109V14H75.71q-1.169,0-1.395-.909H74.24a2.235,2.235,0,0,1-.974.786A3.222,3.222,0,0,1,72,14.13Zm.369-1.237a1.829,1.829,0,0,0,1.374-.567,2.057,2.057,0,0,0,.547-1.49l-1.757.39a2.106,2.106,0,0,0-.848.318.686.686,0,0,0-.28.584.661.661,0,0,0,.267.574A1.169,1.169,0,0,0,72.367,12.893ZM82.792,3.5h1.572V14h-1.5l-.041-1.094a2.213,2.213,0,0,1-.919.916,2.807,2.807,0,0,1-1.371.335,3.186,3.186,0,0,1-2.3-.96,3.264,3.264,0,0,1-.7-1.135,4.154,4.154,0,0,1-.26-1.494,4.107,4.107,0,0,1,.26-1.483,3.27,3.27,0,0,1,.7-1.131,3.2,3.2,0,0,1,2.3-.96,2.843,2.843,0,0,1,1.343.318,2.209,2.209,0,0,1,.919.872Zm-3.367,8.7a1.912,1.912,0,0,0,1.453.622,1.882,1.882,0,0,0,1.449-.636,2.309,2.309,0,0,0,.581-1.62,2.291,2.291,0,0,0-.584-1.613,1.885,1.885,0,0,0-1.446-.636,1.917,1.917,0,0,0-1.453.619,2.277,2.277,0,0,0-.584,1.63A2.289,2.289,0,0,0,79.425,12.2ZM89.641,14.13a3.614,3.614,0,0,1-2.6-.967,3.438,3.438,0,0,1-1.012-2.608A3.421,3.421,0,0,1,87.037,7.96a4,4,0,0,1,5.216,0,3.419,3.419,0,0,1,1.012,2.6,3.438,3.438,0,0,1-1.012,2.608A3.623,3.623,0,0,1,89.641,14.13Zm-.014-1.271a1.928,1.928,0,0,0,1.49-.636,2.376,2.376,0,0,0,.581-1.668,2.363,2.363,0,0,0-.581-1.665,1.933,1.933,0,0,0-1.49-.632,1.889,1.889,0,0,0-1.463.632,2.381,2.381,0,0,0-.574,1.665,2.4,2.4,0,0,0,.571,1.668A1.881,1.881,0,0,0,89.628,12.858Zm6.815-4.58a2.077,2.077,0,0,1,.872-.875,2.719,2.719,0,0,1,1.343-.355V8.483a2.423,2.423,0,0,0-1.624.461,1.962,1.962,0,0,0-.53,1.548V14H94.925V7.123h1.518ZM30.859,32.13a3.614,3.614,0,0,1-2.6-.967,3.438,3.438,0,0,1-1.012-2.608,3.421,3.421,0,0,1,1.012-2.594,4,4,0,0,1,5.216,0,3.419,3.419,0,0,1,1.012,2.6,3.438,3.438,0,0,1-1.012,2.608A3.623,3.623,0,0,1,30.859,32.13Zm-.014-1.271a1.928,1.928,0,0,0,1.49-.636,2.68,2.68,0,0,0,0-3.333,1.933,1.933,0,0,0-1.49-.632,1.889,1.889,0,0,0-1.463.632,2.711,2.711,0,0,0,0,3.333A1.881,1.881,0,0,0,30.845,30.858Zm15.176-2.413-.021.4H40.771a2.075,2.075,0,0,0,.6,1.5,1.964,1.964,0,0,0,1.388.52,1.886,1.886,0,0,0,1.022-.28,1.767,1.767,0,0,0,.68-.8l1.436.246a3.022,3.022,0,0,1-1.189,1.545,3.416,3.416,0,0,1-1.935.554A3.692,3.692,0,0,1,40.2,25.943a3.448,3.448,0,0,1,2.529-.957,3.274,3.274,0,0,1,2.386.878A3.463,3.463,0,0,1,46.021,28.445Zm-3.288-2.29a2.007,2.007,0,0,0-1.241.373,1.814,1.814,0,0,0-.653,1.138h3.6a1.657,1.657,0,0,0-.547-1.128A1.751,1.751,0,0,0,42.733,26.155Zm12.558-1.162a2.417,2.417,0,0,1,1.688.571,2.072,2.072,0,0,1,.629,1.617V32H56.029V27.618a1.35,1.35,0,0,0-.342-1,1.174,1.174,0,0,0-.861-.338,1.289,1.289,0,0,0-.988.407,1.788,1.788,0,0,0-.379,1.254V32h-1.6V27.652a1.4,1.4,0,0,0-.345-1.025,1.184,1.184,0,0,0-.878-.349,1.279,1.279,0,0,0-.991.42,1.9,1.9,0,0,0-.383,1.309V32H47.7V25.123h1.565v.848a2.218,2.218,0,0,1,1.941-.978,2.607,2.607,0,0,1,1.23.277,1.822,1.822,0,0,1,.793.8A2.283,2.283,0,0,1,55.291,24.993Zm5.229-1.183a.939.939,0,0,1-.684-.284.953.953,0,0,1,0-1.36.961.961,0,0,1,1.364,0,.964.964,0,0,1-.677,1.644ZM59.713,32V25.123h1.579V32Zm6.1.13a3.54,3.54,0,0,1-1.928-.489,2.04,2.04,0,0,1-.943-1.418l1.333-.376a1.425,1.425,0,0,0,.54.865,1.663,1.663,0,0,0,1,.291,1.594,1.594,0,0,0,.834-.205.7.7,0,0,0,.335-.663A.641.641,0,0,0,66.9,29.8a.93.93,0,0,0-.212-.246,1.479,1.479,0,0,0-.352-.195,3.972,3.972,0,0,0-.417-.15l-.509-.15q-.321-.1-.533-.164a4.86,4.86,0,0,1-.656-.253,3.114,3.114,0,0,1-.54-.342,1.337,1.337,0,0,1-.414-.537,1.893,1.893,0,0,1-.14-.755,1.808,1.808,0,0,1,.349-1.128,1.983,1.983,0,0,1,.916-.667,3.752,3.752,0,0,1,1.3-.208,3.21,3.21,0,0,1,1.74.444,1.942,1.942,0,0,1,.878,1.36l-1.244.294a1.24,1.24,0,0,0-.5-.766,1.694,1.694,0,0,0-1.668-.051.644.644,0,0,0-.325.591.8.8,0,0,0,.024.2.393.393,0,0,0,.092.167l.123.133a.642.642,0,0,0,.178.12q.123.062.2.1a2.152,2.152,0,0,0,.246.085l.253.075q.082.024.284.075l.284.072q.383.1.653.191a3.767,3.767,0,0,1,.595.263,2.073,2.073,0,0,1,.526.386,1.726,1.726,0,0,1,.338.55,2,2,0,0,1,.137.755,2.04,2.04,0,0,1-.219.967,1.663,1.663,0,0,1-.6.649,2.931,2.931,0,0,1-.848.352A4.238,4.238,0,0,1,65.818,32.13Zm7.376,0a3.614,3.614,0,0,1-2.6-.967,3.438,3.438,0,0,1-1.012-2.608,3.421,3.421,0,0,1,1.012-2.594,4,4,0,0,1,5.216,0,3.419,3.419,0,0,1,1.012,2.6,3.438,3.438,0,0,1-1.012,2.608A3.623,3.623,0,0,1,73.194,32.13Zm-.014-1.271a1.928,1.928,0,0,0,1.49-.636,2.68,2.68,0,0,0,0-3.333,1.933,1.933,0,0,0-1.49-.632,1.889,1.889,0,0,0-1.463.632,2.711,2.711,0,0,0,0,3.333A1.881,1.881,0,0,0,73.18,30.858ZM80,26.278a2.077,2.077,0,0,1,.872-.875,2.719,2.719,0,0,1,1.343-.355v1.436a2.423,2.423,0,0,0-1.624.461,1.962,1.962,0,0,0-.53,1.548V32H78.478V25.123H80Z" transform="translate(305.701 1944.156)" fill="#00223d"/>
  </g>
</svg>
