<svg xmlns="http://www.w3.org/2000/svg" width="121" height="121" viewBox="0 0 121 121">
  <g id="Grupo_25236" data-name="Grupo 25236" transform="translate(-297 -2890)">
    <g id="Grupo_16283" data-name="Grupo 16283" transform="translate(2558 6797)">
      <circle id="Elipse_497" data-name="Elipse 497" cx="60.5" cy="60.5" r="60.5" transform="translate(-2261 -3907)" fill="#4b9ddf"/>
      <path id="Trazado_1178" data-name="Trazado 1178" d="M53.993,0A53.993,53.993,0,1,1,0,53.993,53.993,53.993,0,0,1,53.993,0Z" transform="translate(-2254 -3900)" fill="#fff"/>
      <g id="Grupo_16550" data-name="Grupo 16550" transform="translate(-1 -1)">
        <g id="Grupo_16549" data-name="Grupo 16549" transform="translate(-1963.356 -4693.144)">
          <path id="Trazado_39212" data-name="Trazado 39212" d="M-210.756,834.171l5.712.711-.123-.125c3.977,7.262,4.757,15.139,4.462,23.223-.03.836.2,1.847-.187,2.469a22.519,22.519,0,0,1-2.72,3.077c-.794-1.109-2.173-2.165-2.279-3.336-.374-4.15-.242-8.344-.454-12.512a8.838,8.838,0,0,0-1.631-4.7q0,10.651,0,21.3c0,7.772-.026,15.544.011,23.316.011,2.416-.79,4.274-3.23,4.957-2.586.725-4.695-1.331-4.728-4.742-.077-8.011-.022-16.023-.043-24.034,0-1.242-.123-2.482-.189-3.723l-.99-.035c-.072,1.061-.2,2.121-.205,3.182q-.028,12.017-.006,24.034c.005,2.3-.418,4.345-2.888,5.209-2.623.917-4.985-.973-5.072-4.28-.129-4.9-.039-9.8-.038-14.706q0-14.706,0-29.412a7.325,7.325,0,0,0-.212-1.247l-1.054-.037c-.314,4.655-.657,9.308-.924,13.966-.067,1.187.458,2.522.07,3.546-.46,1.214-1.613,2.166-2.465,3.231-.849-.944-2.368-1.839-2.442-2.84-.676-9.11-.8-18.181,4.845-26.141l1.482-.665,3.283.152C-218.23,838.448-215.421,838.485-210.756,834.171Zm-5.637,22.111c.933-1.567,2.457-2.957,2.441-4.328a70.654,70.654,0,0,0-1.285-10.558,2.05,2.05,0,0,0-1.58-1.268,2.245,2.245,0,0,0-1.369,1.554c-.469,2.439-.592,4.948-1.115,7.372C-219.917,851.922-219.185,854.171-216.392,856.282Z" transform="translate(-8.57 -6.715)" fill="#37474f"/>
          <path id="Trazado_39213" data-name="Trazado 39213" d="M-234.619,832.657l-1.482.665c-1.551,2.413-4.033,4.67-4.467,7.269-1.034,6.193-1.16,12.544-1.495,18.84-.05.944.514,2.511,1.206,2.8,3,1.253,2.447,3.715,2.452,6.027.014,5.977-.034,11.955.024,17.932.027,2.863-.8,5.24-4.008,5.2-3.188-.039-3.98-2.477-3.969-5.3.03-7.77.011-15.54.011-23.31V858.9l-1.038-.109a30.99,30.99,0,0,0-.378,3.4c-.034,7.889,0,15.779-.028,23.669-.012,3.8-1.392,5.8-4,5.552-3.432-.327-3.961-2.808-3.953-5.71.036-13.268.008-26.537,0-39.806q0-2.107,0-4.213l-1.2-.074c-.32,4.791-.662,9.581-.945,14.375-.078,1.308.306,2.711-.049,3.913-.274.926-1.333,2.177-2.124,2.238-.842.064-2.508-1.047-2.561-1.74-.657-8.6-1.267-17.324,3.613-25.018a8.375,8.375,0,0,1,5.85-3.356c6.2-.248,12.393-.049,18.323-2.339a7.522,7.522,0,0,1,2.116-.024Zm-11.892,22.536c.848-1.824,2.178-3.379,2.162-4.919a63.331,63.331,0,0,0-1.265-9.849c-.1-.619-.876-1.125-1.341-1.684-.55.611-1.452,1.155-1.586,1.847-.473,2.436-.435,4.986-1.054,7.374C-250.363,850.932-249.405,852.991-246.511,855.193Z" transform="translate(0 -5.511)" fill="#37474f"/>
          <path id="Trazado_39214" data-name="Trazado 39214" d="M-207.178,829.668c-4.666,4.314-7.474,4.277-12.012-.158-2.457-6.9.672-12.149,6.88-11.551C-206.971,818.474-204.845,823.324-207.178,829.668Z" transform="translate(-12.148 -2.213)" fill="#37474f"/>
          <path id="Trazado_39215" data-name="Trazado 39215" d="M-236.429,817.448a7.028,7.028,0,0,1-7.388,7,7.2,7.2,0,0,1-6.971-7.142,7.339,7.339,0,0,1,7.29-7.228A7.106,7.106,0,0,1-236.429,817.448Z" transform="translate(-3.463)" fill="#37474f"/>
          <path id="Trazado_39216" data-name="Trazado 39216" d="M-195.73,833.986l.123.125q-1.835-1.492-3.672-2.982c4.742.039,6.069,1.06,5.7,4.65Z" transform="translate(-18.006 -5.944)" fill="#37474f"/>
          <path id="Trazado_39217" data-name="Trazado 39217" d="M-211.2,858.746c-2.792-2.111-3.524-4.36-2.907-7.229.522-2.424.645-4.933,1.115-7.372a2.245,2.245,0,0,1,1.369-1.554,2.05,2.05,0,0,1,1.58,1.268,70.654,70.654,0,0,1,1.285,10.558C-208.743,855.789-210.267,857.18-211.2,858.746Z" transform="translate(-13.762 -9.18)" fill="#fff"/>
          <path id="Trazado_39218" data-name="Trazado 39218" d="M-241.316,858.791c-2.894-2.2-3.852-4.262-3.083-7.23.619-2.388.581-4.938,1.054-7.374.134-.693,1.036-1.236,1.586-1.847.464.558,1.236,1.064,1.341,1.684a63.331,63.331,0,0,1,1.265,9.849C-239.138,855.412-240.468,856.967-241.316,858.791Z" transform="translate(-5.195 -9.109)" fill="#fff"/>
        </g>
      </g>
    </g>
  </g>
</svg>
