<?xml version="1.0" encoding="utf-8"?>
<!-- Generator: Adobe Illustrator 24.3.0, SVG Export Plug-In . SVG Version: 6.00 Build 0)  -->
<svg version="1.1" id="Grupo_26052" xmlns="http://www.w3.org/2000/svg" xmlns:xlink="http://www.w3.org/1999/xlink" x="0px"
	 y="0px" viewBox="0 0 150 150" style="enable-background:new 0 0 150 150;" xml:space="preserve">
<style type="text/css">
	.st0{fill:none;}
	.st1{fill:#FF8F00;}
</style>
<rect id="Rectángulo_4043" class="st0" width="150" height="150"/>
<g id="Grupo_11306">
	<path id="Trazado_10733" class="st1" d="M42.2,127L42.2,127c-7-7-7-18.2,0-25.2l14.5-14.5c6.7-6.7,6.7-17.7,0-24.4L42.2,48.3
		c-7-7-7-18.2,0-25.2l0,0c6.9-7,18.2-7,25.2,0c0,0,0,0,0,0l0,0l41.1,41.1c6,6,6,15.7,0,21.7L67.4,127
		C60.5,133.9,49.2,133.9,42.2,127z"/>
</g>
</svg>
