<svg xmlns="http://www.w3.org/2000/svg" width="18.432" height="19.637" viewBox="0 0 18.432 19.637">
  <g id="Grupo_12033" data-name="Grupo 12033" transform="translate(-243.114 -10762.645)">
    <g id="Grupo_11307" data-name="Grupo 11307" transform="translate(-162.922 10369.755)">
      <g id="Grupo_11305" data-name="Grupo 11305" transform="translate(412.653 392.89)">
        <path id="Trazado_10732" data-name="Trazado 10732" d="M419.032,411.973h0a1.89,1.89,0,0,1,0-2.672l4.789-4.789a2.551,2.551,0,0,0,0-3.607l-4.79-4.79a1.889,1.889,0,0,1,0-2.671h0a1.889,1.889,0,0,1,2.672,0l8.113,8.112a1.631,1.631,0,0,1,0,2.305l-8.112,8.112A1.89,1.89,0,0,1,419.032,411.973Z" transform="translate(-418.479 -392.89)" fill="#ff8f00"/>
      </g>
      <g id="Grupo_11306" data-name="Grupo 11306" transform="translate(406.036 396.647)">
        <path id="Trazado_10733" data-name="Trazado 10733" d="M406.589,411.523h0a1.89,1.89,0,0,1,0-2.672l1.542-1.541a1.831,1.831,0,0,0,0-2.589l-1.542-1.541a1.89,1.89,0,0,1,0-2.672h0a1.888,1.888,0,0,1,2.672,0l4.355,4.355a1.63,1.63,0,0,1,0,2.305l-4.355,4.355A1.89,1.89,0,0,1,406.589,411.523Z" transform="translate(-406.036 -399.954)" fill="#ff8f00"/>
      </g>
    </g>
  </g>
</svg>
