<svg xmlns="http://www.w3.org/2000/svg" width="436.154" height="440.897" viewBox="0 0 436.154 440.897">
  <g id="Grupo_1197" data-name="Grupo 1197" transform="translate(19687 13611.896)">
    <g id="Grupo_1195" data-name="Grupo 1195" transform="translate(-19910.951 -13721.599)">
      <path id="Trazado_499" data-name="Trazado 499" d="M223.951,170.961l53,262.875,321.207,66.1,51.689-357.868Z" transform="translate(0 11.922)" fill="#ff4a69"/>
      <g id="Grupo_1110" data-name="Grupo 1110" transform="translate(236.948 109.702)">
        <path id="Trazado_500" data-name="Trazado 500" d="M386.265,463.113H238.689L250.233,347.25H374.72Z" transform="translate(-231.52 -22.216)" fill="#454f6b"/>
        <g id="Grupo_1076" data-name="Grupo 1076" transform="translate(3.061 14.449)">
          <path id="Trazado_501" data-name="Trazado 501" d="M248.442,275.621q6.293-53.373,7.647-107.178A49.489,49.489,0,0,1,304.3,120.28h0a49.576,49.576,0,0,1,50.655,45.2c5.739,64.255,15.155,109.128,15.155,109.128Z" transform="translate(-230.989 -120.262)" fill="#422c4f"/>
          <g id="Grupo_1064" data-name="Grupo 1064" transform="translate(0 95.797)">
            <g id="Grupo_1061" data-name="Grupo 1061">
              <g id="Grupo_1060" data-name="Grupo 1060" transform="translate(58.45)">
                <path id="Trazado_502" data-name="Trazado 502" d="M310.734,210.776l.958-20.5H284.008l.958,20.5a2.29,2.29,0,0,1-1.865,2.144l-4.7,1.342,1.87,20.175h35.149l1.87-20.175-4.7-1.342A2.29,2.29,0,0,1,310.734,210.776Z" transform="translate(-278.405 -190.275)" fill="#eba58e"/>
                <path id="Trazado_503" data-name="Trazado 503" d="M282.5,190.275l.175,3.749c8.857,11.77,23.639,8.17,27.3.729l.209-4.478Z" transform="translate(-276.897 -190.275)" fill="#422c4f"/>
              </g>
              <path id="Trazado_504" data-name="Trazado 504" d="M301.805,290.516l-7.668-82.71L252.22,219.785l.77,126.765-17.3,103.857h41.527a21.121,21.121,0,0,0,21.107-19.46l2.11-32.342Z" transform="translate(-235.687 -183.819)" fill="#a08b7c"/>
              <path id="Trazado_505" data-name="Trazado 505" d="M248.418,220.936l.733,120.779L246.11,359.97l2.739.246c14.266,1.279,28.466-4.483,37.179-14.977l11.355-13.677.583-45.881L295.79,262.2l-30.882,35.711-1.467-38.87a54.167,54.167,0,0,0-8.482-27.8Z" transform="translate(-231.848 -178.983)" fill="#77675c"/>
              <path id="Trazado_506" data-name="Trazado 506" d="M282.954,207.806l-14.73,17.123a3.865,3.865,0,0,0,.465,5.687l7.267,6.2-8.711,9.6a4.116,4.116,0,0,0-.584,5.039l23.96,39.066Z" transform="translate(-224.504 -183.819)" fill="#bba389"/>
              <path id="Trazado_507" data-name="Trazado 507" d="M284.343,251.1l-7.151,8.269,9.328,15.208Z" transform="translate(-220.401 -167.876)" fill="#a08b7c"/>
              <path id="Trazado_508" data-name="Trazado 508" d="M301.223,290.516l7.668-82.71,41.916,11.979-.769,126.765,17.3,103.857H325.814a21.124,21.124,0,0,1-21.109-19.46L302.6,398.605Z" transform="translate(-211.551 -183.819)" fill="#a08b7c"/>
              <path id="Trazado_509" data-name="Trazado 509" d="M308.891,207.806l14.73,17.123a3.865,3.865,0,0,1-.465,5.687l-7.267,6.2,8.711,9.6a4.116,4.116,0,0,1,.584,5.039l-23.96,39.066Z" transform="translate(-211.551 -183.819)" fill="#bba389"/>
            </g>
            <path id="Trazado_510" data-name="Trazado 510" d="M297.346,222.551H279.772l5.8,62.535L284.2,393.175h26.3l-1.374-108.09,5.8-62.535Z" transform="translate(-219.451 -178.388)" fill="#ffcd0d"/>
            <g id="Grupo_1062" data-name="Grupo 1062" transform="translate(9.315 205.621)">
              <path id="Trazado_511" data-name="Trazado 511" d="M242.495,391.364c8.816-3.941,19.335-11.459,27.832-20.955,8.561-9.437,14.947-20.68,17.952-29.857-5.741,7.777-13.1,17.659-21.367,26.78C258.7,376.5,249.635,384.845,242.495,391.364Z" transform="translate(-242.495 -340.551)" fill="#77675c"/>
            </g>
            <g id="Grupo_1063" data-name="Grupo 1063" transform="translate(20.185 199.03)">
              <path id="Trazado_512" data-name="Trazado 512" d="M250.439,367.347a76.6,76.6,0,0,0,36.413-31.613c-4.979,4.608-11.209,10.641-17.769,16.311C262.548,357.743,255.7,363.064,250.439,367.347Z" transform="translate(-250.439 -335.734)" fill="#77675c"/>
            </g>
          </g>
          <g id="Grupo_1075" data-name="Grupo 1075" transform="translate(32.896 20.44)">
            <g id="Grupo_1065" data-name="Grupo 1065" transform="translate(0 45.135)">
              <path id="Trazado_513" data-name="Trazado 513" d="M269.367,168.645a9.915,9.915,0,0,0-4.209-.375,6.62,6.62,0,0,0-3.838,1.866c-2.481,2.533-1.623,5.5-.375,7.981a25.256,25.256,0,0,0,4.3,6.085c2.351,2.463,5.595,5,9.218,4.825a5.545,5.545,0,0,0,5.41-5.958c-.223-2.79-1.816-5.55-3.239-8.238A12.377,12.377,0,0,0,269.367,168.645Z" transform="translate(-259.729 -168.188)" fill="#eba58e"/>
              <path id="Trazado_514" data-name="Trazado 514" d="M261.467,173.8a2.746,2.746,0,0,1,2.642-2.49,5.913,5.913,0,0,1,3.7,1.314,15.019,15.019,0,0,1,5.7,7.932,4.618,4.618,0,0,1,.246,1.772,1.769,1.769,0,0,1-2.634,1.524,4.575,4.575,0,0,1-1.433-1.125,6.245,6.245,0,0,1-1.754-3.113,2.984,2.984,0,0,1,1.331-3.122,11.378,11.378,0,0,0-2.972-2.6,5,5,0,0,0-2.31-1.059A3.037,3.037,0,0,0,261.467,173.8Z" transform="translate(-259.089 -167.043)" fill="#de7274"/>
            </g>
            <g id="Grupo_1066" data-name="Grupo 1066" transform="translate(69.06 45.135)">
              <path id="Trazado_515" data-name="Trazado 515" d="M320.725,168.645a9.909,9.909,0,0,1,4.207-.375,6.612,6.612,0,0,1,3.838,1.866c2.481,2.533,1.624,5.5.375,7.981a25.253,25.253,0,0,1-4.3,6.085c-2.352,2.463-5.595,5-9.22,4.825a5.547,5.547,0,0,1-5.41-5.958c.224-2.79,1.816-5.55,3.24-8.238A12.373,12.373,0,0,1,320.725,168.645Z" transform="translate(-310.201 -168.188)" fill="#eba58e"/>
              <path id="Trazado_516" data-name="Trazado 516" d="M326.51,173.8a2.747,2.747,0,0,0-2.644-2.49,5.912,5.912,0,0,0-3.7,1.314,15.019,15.019,0,0,0-5.7,7.932,4.618,4.618,0,0,0-.246,1.772,1.769,1.769,0,0,0,2.633,1.524,4.545,4.545,0,0,0,1.433-1.125,6.225,6.225,0,0,0,1.754-3.113,2.984,2.984,0,0,0-1.331-3.122,11.362,11.362,0,0,1,2.973-2.6,5.006,5.006,0,0,1,2.308-1.059A3.039,3.039,0,0,1,326.51,173.8Z" transform="translate(-308.726 -167.043)" fill="#de7274"/>
            </g>
            <path id="Trazado_517" data-name="Trazado 517" d="M330.921,164.094c.815,10.359,1.019,21.042-2.418,30.848s-11.189,18.666-21.356,20.806c-11.18,2.352-22.913-4.052-29.388-13.464s-8.464-21.243-8.5-32.666c7.65-2.077,15.317-6.347,20.274-12.532a38.054,38.054,0,0,0,8.255-21.884C303.363,148.742,316.916,159.806,330.921,164.094Z" transform="translate(-256.22 -135.201)" fill="#eba58e"/>
            <path id="Trazado_518" data-name="Trazado 518" d="M316.183,175.146c-3.578-2.221-6.839-5.153-10.9-6.272-4.381-1.208-9.1-.1-13.237,1.794s-7.866,4.551-11.886,6.673a29.119,29.119,0,0,1-8.284,3.044c.275.759.565,1.513.878,2.256a30.456,30.456,0,0,0,7.405-2.86c4.02-2.124,7.755-4.779,11.886-6.675s8.856-3,13.237-1.794c4.06,1.119,7.32,4.053,10.9,6.274a34.1,34.1,0,0,0,11.566,4.487q.386-1.153.7-2.321A34.122,34.122,0,0,1,316.183,175.146Z" transform="translate(-255.255 -122.986)" fill="#fff"/>
            <path id="Trazado_519" data-name="Trazado 519" d="M305.048,170.657c-4.381-1.207-9.1-.1-13.237,1.794s-7.866,4.551-11.886,6.674a30.455,30.455,0,0,1-7.405,2.86,41.545,41.545,0,0,0,4.036,7.427c6.475,9.412,18.208,15.816,29.388,13.464,10.168-2.14,17.919-11,21.356-20.806.077-.216.141-.435.212-.653a34.1,34.1,0,0,1-11.566-4.487C312.369,174.709,309.108,171.776,305.048,170.657Z" transform="translate(-255.018 -122.329)" fill="#96e4ff"/>
            <g id="Grupo_1068" data-name="Grupo 1068" transform="translate(17.279 30.114)">
              <g id="Grupo_1067" data-name="Grupo 1067">
                <path id="Trazado_520" data-name="Trazado 520" d="M281.507,157.608a13.491,13.491,0,0,0-9.15,7.777l20.875-5.178A13.494,13.494,0,0,0,281.507,157.608Z" transform="translate(-272.357 -157.21)" fill="#422c4f"/>
              </g>
              <path id="Trazado_521" data-name="Trazado 521" d="M284.811,166.615a2.844,2.844,0,1,1-3.445-2.077A2.844,2.844,0,0,1,284.811,166.615Z" transform="translate(-269.835 -154.542)" fill="#422c4f"/>
            </g>
            <g id="Grupo_1070" data-name="Grupo 1070" transform="translate(52.484 30.114)">
              <g id="Grupo_1069" data-name="Grupo 1069">
                <path id="Trazado_522" data-name="Trazado 522" d="M309.811,157.608a13.491,13.491,0,0,1,9.15,7.777l-20.875-5.178A13.494,13.494,0,0,1,309.811,157.608Z" transform="translate(-298.086 -157.21)" fill="#422c4f"/>
              </g>
              <path id="Trazado_523" data-name="Trazado 523" d="M302.42,166.615a2.844,2.844,0,1,0,3.445-2.077A2.844,2.844,0,0,0,302.42,166.615Z" transform="translate(-296.521 -154.542)" fill="#422c4f"/>
            </g>
            <g id="Grupo_1074" data-name="Grupo 1074" transform="translate(26.453 52.835)">
              <g id="Grupo_1071" data-name="Grupo 1071" transform="translate(0 4.587)">
                <path id="Trazado_524" data-name="Trazado 524" d="M315.248,180.582a46.85,46.85,0,0,0-36.186.453,161.748,161.748,0,0,1,18.078-1.427A161.412,161.412,0,0,1,315.248,180.582Z" transform="translate(-279.062 -177.168)" fill="#6bc5ff"/>
              </g>
              <g id="Grupo_1072" data-name="Grupo 1072" transform="translate(6.967 10.221)">
                <path id="Trazado_525" data-name="Trazado 525" d="M307.207,181.289c-3.235-.027-7.379.116-11.526.152s-8.293-.01-11.526.085a43.061,43.061,0,0,0,23.053-.237Z" transform="translate(-284.154 -181.285)" fill="#6bc5ff"/>
              </g>
              <g id="Grupo_1073" data-name="Grupo 1073" transform="translate(10.918)">
                <path id="Trazado_526" data-name="Trazado 526" d="M299.393,175.342a11.658,11.658,0,0,0-12.352.514c1.842.1,4.012-.01,6.182-.094S297.565,175.594,299.393,175.342Z" transform="translate(-287.041 -173.815)" fill="#6bc5ff"/>
              </g>
            </g>
          </g>
        </g>
        <g id="Grupo_1099" data-name="Grupo 1099" transform="translate(223.784)">
          <g id="Grupo_1081" data-name="Grupo 1081" transform="translate(0 98.885)">
            <g id="Grupo_1077" data-name="Grupo 1077" transform="translate(0 237.703)">
              <path id="Trazado_527" data-name="Trazado 527" d="M417.98,355.694,397,460H557.468l-5.4-87.89Z" transform="translate(-397 -355.694)" fill="#454f6b"/>
              <path id="Trazado_528" data-name="Trazado 528" d="M549.02,387.765l-1.764-15.652L413.165,355.694l-3.09,9.47c21.088,13.46,46.061,20.256,71.022,22.8C503.654,390.257,526.37,389.284,549.02,387.765Z" transform="translate(-392.185 -355.694)" fill="#422c4f"/>
            </g>
            <g id="Grupo_1080" data-name="Grupo 1080" transform="translate(14.884)">
              <g id="Grupo_1078" data-name="Grupo 1078" transform="translate(0 29.116)">
                <path id="Trazado_529" data-name="Trazado 529" d="M554.74,218.452l-26.8-10.12a36.511,36.511,0,0,1-65.158-5.082l-28.343,8.091a27.365,27.365,0,0,0-19.561,22.317l-6.542,44.305,24.629,5.5-3.649,55.856-21.436,77.206c53.363,25.416,143.213,16.751,143.213,16.751l-5.016-97.122Z" transform="translate(-407.878 -203.25)" fill="#7dd3e9"/>
                <path id="Trazado_530" data-name="Trazado 530" d="M518.745,227.056l-2.338,3.165a101.522,101.522,0,0,0-19.564,52.325l-13.3-3.077,6.728,85.974a31.471,31.471,0,0,0,30.784,17.086l-2.847-55.143,7.386-100.328Z" transform="translate(-380.011 -194.483)" fill="#5fa5cc"/>
              </g>
              <g id="Grupo_1079" data-name="Grupo 1079" transform="translate(54.901)">
                <path id="Trazado_531" data-name="Trazado 531" d="M464.638,229.593a36.5,36.5,0,0,0,48.522-13.424l-16.681-6.3V186.381l-31.824-4.41-1.207,24.706L448,211.087A37.134,37.134,0,0,0,464.638,229.593Z" transform="translate(-448.002 -181.971)" fill="#bd6c67"/>
                <path id="Trazado_532" data-name="Trazado 532" d="M460.341,181.971l31.824,4.41v9.629c-6.8,17.566-26.456,15.022-32.449-1.237Z" transform="translate(-443.688 -181.971)" fill="#422c4f"/>
              </g>
            </g>
          </g>
          <g id="Grupo_1098" data-name="Grupo 1098" transform="translate(55.536)">
            <g id="Grupo_1086" data-name="Grupo 1086" transform="translate(10.974)">
              <path id="Trazado_533" data-name="Trazado 533" d="M510.436,198.288c2.976-.874,5.165-3.526,6.278-6.421a30.513,30.513,0,0,0,1.5-9.146q.675-11.169,1.349-22.339c.412-6.817.813-13.769-.91-20.378s-6.695-12.807-13.063-15.276c2.492-4.45,2.26-10.384.151-15.027-4.957,4.584-11.607,6.877-18.206,8.3s-13.37,2.107-19.829,4.071-12.773,5.424-16.455,11.083c-3.319,5.1-4.151,11.388-4.681,17.451a253.207,253.207,0,0,0-.922,26.312,42.864,42.864,0,0,0,1.078,10.281,16.188,16.188,0,0,0,5.31,8.689C471.241,196.711,491.229,197.467,510.436,198.288Z" transform="translate(-445.608 -109.702)" fill="#422c4f"/>
              <g id="Grupo_1085" data-name="Grupo 1085" transform="translate(27.337 15.406)">
                <g id="Grupo_1082" data-name="Grupo 1082" transform="translate(1.999 5.288)">
                  <path id="Trazado_534" data-name="Trazado 534" d="M486.931,124.826c-2.9,1.974-6.164,4.332-9.642,6.369-3.466,2.057-7.11,3.774-10.24,5.354,3.385.883,8.169.176,12.109-2.185C483.131,132.059,486.064,128.215,486.931,124.826Z" transform="translate(-467.048 -124.826)" fill="#454f6b"/>
                </g>
                <g id="Grupo_1083" data-name="Grupo 1083" transform="translate(15.681 7.216)">
                  <path id="Trazado_535" data-name="Trazado 535" d="M490.586,126.235c-2,1.508-4.232,3.347-6.6,5.007s-4.842,3.155-6.936,4.533a13.207,13.207,0,0,0,13.539-9.54Z" transform="translate(-477.047 -126.235)" fill="#454f6b"/>
                </g>
                <g id="Grupo_1084" data-name="Grupo 1084">
                  <path id="Trazado_536" data-name="Trazado 536" d="M478.835,120.961c-1.838,2.43-3.885,5.262-6.205,7.877-2.306,2.63-4.862,5.013-7.043,7.14a15.227,15.227,0,0,0,13.248-15.017Z" transform="translate(-465.587 -120.961)" fill="#454f6b"/>
                </g>
              </g>
            </g>
            <g id="Grupo_1087" data-name="Grupo 1087" transform="translate(0 66.268)">
              <path id="Trazado_537" data-name="Trazado 537" d="M448.12,159.273a9.909,9.909,0,0,0-4.072-1.132,6.609,6.609,0,0,0-4.112,1.14c-2.9,2.041-2.593,5.112-1.816,7.781a25.228,25.228,0,0,0,3.124,6.762c1.866,2.849,4.6,5.927,8.192,6.416a5.545,5.545,0,0,0,6.4-4.878c.285-2.786-.781-5.788-1.693-8.69A12.38,12.38,0,0,0,448.12,159.273Z" transform="translate(-437.588 -158.133)" fill="#bd6c67"/>
              <path id="Trazado_538" data-name="Trazado 538" d="M439.233,163.065a2.743,2.743,0,0,1,3.05-1.97,5.913,5.913,0,0,1,3.4,1.961,15.023,15.023,0,0,1,4.171,8.835,4.615,4.615,0,0,1-.078,1.787,1.768,1.768,0,0,1-2.867,1.021,4.562,4.562,0,0,1-1.205-1.364,6.239,6.239,0,0,1-1.16-3.38,2.982,2.982,0,0,1,1.875-2.83,11.38,11.38,0,0,0-2.452-3.094,5,5,0,0,0-2.08-1.46A3.03,3.03,0,0,0,439.233,163.065Z" transform="translate(-436.982 -157.049)" fill="#8c404c"/>
            </g>
            <g id="Grupo_1088" data-name="Grupo 1088" transform="translate(76.826 68.932)">
              <path id="Trazado_539" data-name="Trazado 539" d="M501.5,161.218a9.929,9.929,0,0,1,4.072-1.13,6.609,6.609,0,0,1,4.112,1.14c2.9,2.041,2.593,5.112,1.816,7.781a25.25,25.25,0,0,1-3.124,6.762c-1.866,2.849-4.6,5.927-8.192,6.416a5.547,5.547,0,0,1-6.4-4.878c-.285-2.786.781-5.788,1.694-8.69A12.38,12.38,0,0,1,501.5,161.218Z" transform="translate(-493.736 -160.08)" fill="#bd6c67"/>
              <path id="Trazado_540" data-name="Trazado 540" d="M508.335,165.011a2.746,2.746,0,0,0-3.051-1.969,5.913,5.913,0,0,0-3.4,1.961,15.03,15.03,0,0,0-4.17,8.835,4.615,4.615,0,0,0,.078,1.787,1.77,1.77,0,0,0,2.867,1.021,4.562,4.562,0,0,0,1.205-1.364,6.24,6.24,0,0,0,1.16-3.381,2.981,2.981,0,0,0-1.875-2.828,11.38,11.38,0,0,1,2.452-3.094,5,5,0,0,1,2.08-1.46A3.033,3.033,0,0,1,508.335,165.011Z" transform="translate(-492.289 -158.996)" fill="#8c404c"/>
            </g>
            <path id="Trazado_541" data-name="Trazado 541" d="M513.1,169.217c-.19,12.271-.655,25.41-7.864,35.343a30.07,30.07,0,0,1-43.5,5.511,35.885,35.885,0,0,1-11.55-19.4,56.366,56.366,0,0,1-.224-22.811l.446-.654a38.491,38.491,0,0,0,6.673-20.869l.067-3.2a6.836,6.836,0,0,1,7.405-6.676c11.054.928,24.528,2.059,36.2,1.578a6.819,6.819,0,0,1,7.051,7.144l-.107,2.4a38.456,38.456,0,0,0,4.184,19.255Z" transform="translate(-433.417 -99.854)" fill="#bd6c67"/>
            <g id="Grupo_1089" data-name="Grupo 1089" transform="translate(15.507 71.322)">
              <path id="Trazado_542" data-name="Trazado 542" d="M495.834,168.237c-3.233-2.055-6.246-4.612-9.908-5.743-4.32-1.331-9.024-.5-13.293.988s-8.3,3.607-12.62,4.944a21.3,21.3,0,0,1-11.086.755c-.016,1.256,0,2.511.066,3.763a21.361,21.361,0,0,0,11.02-.769c4.317-1.337,8.352-3.459,12.62-4.945s8.973-2.319,13.293-.987c3.662,1.129,6.674,3.686,9.908,5.743a40.334,40.334,0,0,0,16.055,5.843q.3-1.829.5-3.686A40.332,40.332,0,0,1,495.834,168.237Z" transform="translate(-448.921 -161.827)" fill="#fff"/>
              <path id="Trazado_543" data-name="Trazado 543" d="M485.907,165.235c-4.32-1.333-9.024-.5-13.293.987s-8.3,3.608-12.62,4.945a21.361,21.361,0,0,1-11.02.769,47.37,47.37,0,0,0,1.193,8.382,35.885,35.885,0,0,0,11.55,19.4,30.07,30.07,0,0,0,43.5-5.511c3.72-5.126,5.636-11.108,6.654-17.381a40.334,40.334,0,0,1-16.055-5.843C492.581,168.921,489.568,166.364,485.907,165.235Z" transform="translate(-448.902 -160.818)" fill="#96e4ff"/>
            </g>
            <g id="Grupo_1091" data-name="Grupo 1091" transform="translate(24.673 51.112)">
              <g id="Grupo_1090" data-name="Grupo 1090">
                <path id="Trazado_544" data-name="Trazado 544" d="M464.712,147.076a11.423,11.423,0,0,0-9.092,5.918l18.844-1.164A11.427,11.427,0,0,0,464.712,147.076Z" transform="translate(-455.62 -147.056)" fill="#422c4f"/>
              </g>
              <path id="Trazado_545" data-name="Trazado 545" d="M465.851,157.857a2.844,2.844,0,1,1-2.589-3.08A2.846,2.846,0,0,1,465.851,157.857Z" transform="translate(-453.943 -144.217)" fill="#422c4f"/>
            </g>
            <g id="Grupo_1093" data-name="Grupo 1093" transform="translate(54.685 52.098)">
              <g id="Grupo_1092" data-name="Grupo 1092">
                <path id="Trazado_546" data-name="Trazado 546" d="M487.495,147.833a11.424,11.424,0,0,1,8.839,6.29l-18.78-1.946A11.426,11.426,0,0,1,487.495,147.833Z" transform="translate(-477.554 -147.777)" fill="#422c4f"/>
              </g>
              <path id="Trazado_547" data-name="Trazado 547" d="M482.35,158.477a2.845,2.845,0,1,0,2.715-2.968A2.845,2.845,0,0,0,482.35,158.477Z" transform="translate(-475.789 -144.931)" fill="#422c4f"/>
            </g>
            <g id="Grupo_1097" data-name="Grupo 1097" transform="translate(24.626 82.029)">
              <g id="Grupo_1094" data-name="Grupo 1094" transform="translate(0 6.783)">
                <path id="Trazado_548" data-name="Trazado 548" d="M500.93,180.107a98.23,98.23,0,0,0-45.344-4.593c6.306,1,14.472,1.814,22.636,2.65C486.386,178.982,494.551,179.821,500.93,180.107Z" transform="translate(-455.586 -174.61)" fill="#6bc5ff"/>
              </g>
              <g id="Grupo_1095" data-name="Grupo 1095" transform="translate(6.627)">
                <path id="Trazado_549" data-name="Trazado 549" d="M488.223,175.18a24.264,24.264,0,0,0-27.794-2.118,40.492,40.492,0,0,1,27.794,2.118Z" transform="translate(-460.429 -169.652)" fill="#6bc5ff"/>
              </g>
              <g id="Grupo_1096" data-name="Grupo 1096" transform="translate(5.069 14.027)">
                <path id="Trazado_550" data-name="Trazado 550" d="M492.321,183.908a124.51,124.51,0,0,1-33.031-4,42.926,42.926,0,0,0,33.031,4Z" transform="translate(-459.291 -179.904)" fill="#6bc5ff"/>
              </g>
            </g>
          </g>
        </g>
        <rect id="Rect치ngulo_653" data-name="Rect치ngulo 653" width="261.173" height="184.21" transform="translate(86.441 168.797)" fill="#fdf7e7"/>
        <path id="Trazado_551" data-name="Trazado 551" d="M337.5,216.561h0l-.137,22.584h21.57l-.35-1.275A30.571,30.571,0,0,0,337.5,216.561Z" transform="translate(-195.18 -70.347)" fill="#a08b7c"/>
        <g id="Grupo_1103" data-name="Grupo 1103" transform="translate(226.689 143.202)">
          <g id="Grupo_1100" data-name="Grupo 1100" transform="translate(0 12.576)">
            <path id="Trazado_552" data-name="Trazado 552" d="M418.216,239.914l1.935-13.375a3.484,3.484,0,0,1,3.949-2.951l2.418.349a3.487,3.487,0,0,1,2.951,3.949l-1.935,13.376a4.707,4.707,0,0,1-5.332,3.986h0A4.708,4.708,0,0,1,418.216,239.914Z" transform="translate(-392.11 -223.551)" fill="#bd6c67"/>
            <path id="Trazado_553" data-name="Trazado 553" d="M410.716,240.536l1.933-13.375a3.485,3.485,0,0,1,3.949-2.951l2.418.349a3.485,3.485,0,0,1,2.951,3.949l-1.933,13.376a4.708,4.708,0,0,1-5.334,3.986h0A4.708,4.708,0,0,1,410.716,240.536Z" transform="translate(-394.872 -223.322)" fill="#bd6c67"/>
            <path id="Trazado_554" data-name="Trazado 554" d="M404.183,239.241l1.791-12.39a3.107,3.107,0,0,1,3.518-2.63l2.418.35a3.1,3.1,0,0,1,2.629,3.517l-1.791,12.391a4.327,4.327,0,0,1-4.9,3.663h0A4.327,4.327,0,0,1,404.183,239.241Z" transform="translate(-397.277 -223.316)" fill="#bd6c67"/>
            <path id="Trazado_555" data-name="Trazado 555" d="M399.158,239.692l1.782-12.316a2.12,2.12,0,0,1,2.4-1.8l2.418.35a2.12,2.12,0,0,1,1.8,2.4l-1.78,12.316a3.343,3.343,0,0,1-3.786,2.83h0A3.343,3.343,0,0,1,399.158,239.692Z" transform="translate(-399.124 -222.812)" fill="#bd6c67"/>
          </g>
          <g id="Grupo_1102" data-name="Grupo 1102" transform="translate(68.534)">
            <path id="Trazado_556" data-name="Trazado 556" d="M522.678,215.686l-3.508-1.326-.5.863a99.015,99.015,0,0,0-13.323,47.766l-.887,46.924,52.337,2.395L545.1,242.946A35.434,35.434,0,0,0,522.678,215.686Z" transform="translate(-428.863 -214.36)" fill="#7dd3e9"/>
            <g id="Grupo_1101" data-name="Grupo 1101" transform="translate(0 26.288)">
              <path id="Trazado_557" data-name="Trazado 557" d="M529.6,310.363l-22.018-49.984a27.757,27.757,0,0,0-14.037-14.134l-17.194-7.717-17.39-4.84a3.144,3.144,0,0,0-3.834,2.062h0a3.143,3.143,0,0,0,1.806,3.878l16.909,6.881-20.828-.386a3.732,3.732,0,0,0-3.8,3.733h0a3.731,3.731,0,0,0,3.239,3.7l20.251,2.7-19.235,3.818a3.054,3.054,0,0,0-2.421,3.478h0a3.054,3.054,0,0,0,3.269,2.56l19.071-1.589-12.839,5.962a2.5,2.5,0,0,0-1.128,3.484h0a2.5,2.5,0,0,0,2.871,1.18l12.235-3.529c9.35,5.9,21.664,5.447,21.664,5.447l12.4,64.145a29.417,29.417,0,0,0,32.831,23.569h0a29.417,29.417,0,0,0,25.467-29.15v-30.87l-36.931-1.69Z" transform="translate(-449.211 -233.573)" fill="#bd6c67"/>
              <path id="Trazado_558" data-name="Trazado 558" d="M507.961,289.694l14.162,32.149C529.169,291.4,507.961,289.694,507.961,289.694Z" transform="translate(-427.574 -212.904)" fill="#8c404c"/>
              <path id="Trazado_559" data-name="Trazado 559" d="M508.22,284.366l36.931,1.69V298.5L508.22,287.209Z" transform="translate(-427.479 -214.866)" fill="#422c4f"/>
            </g>
          </g>
        </g>
        <g id="Grupo_1109" data-name="Grupo 1109" transform="translate(0 146.214)">
          <g id="Grupo_1107" data-name="Grupo 1107">
            <path id="Trazado_560" data-name="Trazado 560" d="M253.044,216.561h0a29.748,29.748,0,0,0-19.587,28.618l1.675,76.092a32.906,32.906,0,0,0,15.9,27.452h0a32.9,32.9,0,0,0,42.28-7.119L306,326.373l-35.233-22.621-4.1,4.491-2.775-50.8a91.785,91.785,0,0,0-7.132-30.8Z" transform="translate(-233.45 -216.561)" fill="#a08b7c"/>
            <path id="Trazado_561" data-name="Trazado 561" d="M262.256,299.622l34.386-45.433L321.5,237.543l17.99-5.963A2.778,2.778,0,0,1,342.862,233h0a2.777,2.777,0,0,1-1.274,3.712l-16.325,8.015,20.823-3.09a3.221,3.221,0,0,1,3.626,2.531h0a3.219,3.219,0,0,1-2.411,3.787l-18.617,4.41,18.161,1.72a3.561,3.561,0,0,1,3.211,3.839h0a3.561,3.561,0,0,1-3.623,3.263l-17.978-.386,15.252,3.763a2.739,2.739,0,0,1,2.006,3.306h0a2.742,2.742,0,0,1-3.153,2.048l-13.764-2.5c-8.095,5.245-25.085,4.447-25.085,4.447l-17.934,42.86Z" transform="translate(-222.841 -211.082)" fill="#eba58e"/>
            <path id="Trazado_562" data-name="Trazado 562" d="M262.257,281.8l23.521,15.1,2.776-6.634-24.8-10.45Z" transform="translate(-222.84 -193.263)" fill="#de7274"/>
            <path id="Trazado_563" data-name="Trazado 563" d="M262.03,284.379,246.02,301.9l.766-6.112a16.538,16.538,0,0,1,15.079-14.426h0Z" transform="translate(-228.82 -192.697)" fill="#77675c"/>
            <g id="Grupo_1104" data-name="Grupo 1104" transform="translate(36.03 94.445)">
              <path id="Trazado_564" data-name="Trazado 564" d="M290.184,305.8c-4.223-2.9-9.785-6.393-15.247-10.038-5.475-3.627-10.846-7.405-15.155-10.176a67.414,67.414,0,0,0,30.4,20.214Z" transform="translate(-259.782 -285.585)" fill="#77675c"/>
            </g>
            <g id="Grupo_1105" data-name="Grupo 1105" transform="translate(5.548 64.939)">
              <path id="Trazado_565" data-name="Trazado 565" d="M237.5,264.021c3.493,3.117,8.192,6.87,12.863,10.656s9.336,7.583,13.116,10.346a69.88,69.88,0,0,0-25.98-21Z" transform="translate(-237.504 -264.021)" fill="#77675c"/>
            </g>
            <g id="Grupo_1106" data-name="Grupo 1106" transform="translate(10.098 47.945)">
              <path id="Trazado_566" data-name="Trazado 566" d="M240.83,251.6c4.285,11.421,13.957,28.385,21.6,37.892C258.146,278.072,248.475,261.107,240.83,251.6Z" transform="translate(-240.83 -251.601)" fill="#77675c"/>
            </g>
          </g>
          <g id="Grupo_1108" data-name="Grupo 1108" transform="translate(152.966 9.057)">
            <path id="Trazado_567" data-name="Trazado 567" d="M356.531,239.545,354.6,226.168a3.488,3.488,0,0,0-3.95-2.951l-2.416.35a3.484,3.484,0,0,0-2.951,3.949l1.933,13.376a4.709,4.709,0,0,0,5.332,3.986h0A4.708,4.708,0,0,0,356.531,239.545Z" transform="translate(-345.243 -223.181)" fill="#eba58e"/>
            <path id="Trazado_568" data-name="Trazado 568" d="M364.033,240.167,362.1,226.79a3.486,3.486,0,0,0-3.949-2.951l-2.418.35a3.485,3.485,0,0,0-2.951,3.949l1.933,13.376a4.71,4.71,0,0,0,5.334,3.986h0A4.71,4.71,0,0,0,364.033,240.167Z" transform="translate(-342.481 -222.951)" fill="#eba58e"/>
            <path id="Trazado_569" data-name="Trazado 569" d="M370.321,238.871,368.53,226.48a3.106,3.106,0,0,0-3.518-2.628l-2.416.35a3.1,3.1,0,0,0-2.63,3.517l1.792,12.391a4.326,4.326,0,0,0,4.9,3.663h0A4.326,4.326,0,0,0,370.321,238.871Z" transform="translate(-339.833 -222.945)" fill="#eba58e"/>
            <path id="Trazado_570" data-name="Trazado 570" d="M374.813,239.322l-1.78-12.317a2.122,2.122,0,0,0-2.4-1.8l-2.418.35a2.12,2.12,0,0,0-1.8,2.4l1.78,12.317a3.343,3.343,0,0,0,3.786,2.83h0A3.343,3.343,0,0,0,374.813,239.322Z" transform="translate(-337.453 -222.441)" fill="#eba58e"/>
          </g>
        </g>
      </g>
    </g>
    <g id="Grupo_1196" data-name="Grupo 1196" transform="translate(-19514.105 -13406.933)">
      <path id="Rect치ngulo_657" data-name="Rect치ngulo 657" d="M.671,0H9.323a.671.671,0,0,1,.671.671V29.555a5,5,0,0,1-5,5H5a5,5,0,0,1-5-5V.671A.671.671,0,0,1,.671,0Z" transform="translate(84.431 91.625) rotate(-45)" fill="#0f94a5"/>
      <g id="Grupo_1114" data-name="Grupo 1114" transform="translate(14.527 14.654)">
        <circle id="Elipse_17" data-name="Elipse 17" cx="44.623" cy="44.623" r="44.623" fill="#0f94a5"/>
      </g>
      <circle id="Elipse_18" data-name="Elipse 18" cx="36.721" cy="36.721" r="36.721" transform="translate(22.429 22.556)" fill="#ffe8e6"/>
      <path id="Trazado_580" data-name="Trazado 580" d="M84.326,52.319a2.158,2.158,0,0,0-1.21,1.068.961.961,0,0,1-.661.5,31.032,31.032,0,0,1-3.189.463A19.659,19.659,0,0,0,73.152,45.5a36.6,36.6,0,0,1,1.966-3.626,1,1,0,0,1,.757-.462,2.43,2.43,0,0,0,1.809-1.034,2.478,2.478,0,0,0-.62-3.444,2.534,2.534,0,0,0-3.561.819,2.431,2.431,0,0,0-.235,1.85,1.006,1.006,0,0,1-.182.861,36.815,36.815,0,0,1-2.734,3.127,19.525,19.525,0,0,0-9.667-2.556c-.474,0-.94.038-1.405.071a34.78,34.78,0,0,1-1.033-3.393,1.032,1.032,0,0,1,.215-.887,2.516,2.516,0,0,0,.435-2.406,2.559,2.559,0,1,0-3.676,3.051,1.018,1.018,0,0,1,.511.729,34.178,34.178,0,0,1,.324,3.407A19.6,19.6,0,0,0,46.9,46.69a33.474,33.474,0,0,1-3.559-2.255.951.951,0,0,1-.39-.722,1.947,1.947,0,0,0-.576-1.319,2.011,2.011,0,0,0-2.9.133,1.965,1.965,0,0,0,.259,2.768,1.928,1.928,0,0,0,1.572.415.936.936,0,0,1,.784.254,33.153,33.153,0,0,1,2.834,3.026,19.5,19.5,0,0,0-3.69,9.1,35.664,35.664,0,0,1-3.919.549.98.98,0,0,1-.8-.32,2.487,2.487,0,0,0-2.542-.721,2.756,2.756,0,0,0-1.713,1.784,2.486,2.486,0,0,0,2.492,3.08,2.429,2.429,0,0,0,1.843-.933,1.039,1.039,0,0,1,.818-.408,34.765,34.765,0,0,1,3.661.265,19.515,19.515,0,0,0,3.086,9.89,32.1,32.1,0,0,1-2.46,2.784.962.962,0,0,1-.8.278,2.024,2.024,0,0,0-2.265,2.347,2.048,2.048,0,0,0,4.071-.338.956.956,0,0,1,.364-.744,31.154,31.154,0,0,1,2.836-2.01,19.676,19.676,0,0,0,6.923,5.085,34.629,34.629,0,0,1-.849,3.54,1,1,0,0,1-.6.641A2.475,2.475,0,0,0,49.8,85.17,2.411,2.411,0,0,0,50.8,87.148a2.475,2.475,0,0,0,3.8-1.171,2.434,2.434,0,0,0-.216-2.074,1,1,0,0,1-.067-.878A34.087,34.087,0,0,1,55.9,79.7a19.212,19.212,0,0,0,11.472-.583c.522.824,1,1.622,1.367,2.327a1.008,1.008,0,0,1,.034.9,3.05,3.05,0,0,0,.572,3.449,2.913,2.913,0,0,0,2.486.884,3.042,3.042,0,0,0,2.405-4.341,2.973,2.973,0,0,0-2.075-1.624.994.994,0,0,1-.693-.572c-.318-.718-.641-1.571-.957-2.478a19.7,19.7,0,0,0,7.658-8.074,32.028,32.028,0,0,1,3.692,1.191.961.961,0,0,1,.555.6,1.974,1.974,0,0,0,1.53,1.36,1.964,1.964,0,0,0,1.173-3.717,1.912,1.912,0,0,0-1.611-.008.957.957,0,0,1-.83-.032,31.808,31.808,0,0,1-3.373-2.1,19.242,19.242,0,0,0,.68-9.766A30.694,30.694,0,0,1,83,56a.949.949,0,0,1,.822.135,2.141,2.141,0,0,0,3.287-1.084A2.177,2.177,0,0,0,84.326,52.319Z" transform="translate(-1.43 -1.447)" fill="#ff4a69"/>
      <g id="Grupo_1115" data-name="Grupo 1115" transform="translate(47.644 46.398)">
        <circle id="Elipse_19" data-name="Elipse 19" cx="1.482" cy="1.482" r="1.482" transform="translate(22.236 16.462)" fill="#d32a57"/>
        <circle id="Elipse_20" data-name="Elipse 20" cx="2.155" cy="2.155" r="2.155" transform="translate(7.532 21.55)" fill="#d32a57"/>
        <circle id="Elipse_21" data-name="Elipse 21" cx="1.612" cy="1.612" r="1.612" transform="translate(17.192)" fill="#d32a57"/>
        <circle id="Elipse_22" data-name="Elipse 22" cx="1.441" cy="1.441" r="1.441" transform="translate(0 15.142)" fill="#d32a57"/>
        <circle id="Elipse_23" data-name="Elipse 23" cx="1.612" cy="1.612" r="1.612" transform="translate(1.441 3.982)" fill="#d32a57"/>
        <circle id="Elipse_24" data-name="Elipse 24" cx="2.699" cy="2.699" r="2.699" transform="translate(11.842 9.013)" fill="#d32a57"/>
      </g>
      <g id="Grupo_1124" data-name="Grupo 1124" transform="translate(1.005 1.132)">
        <g id="Grupo_1116" data-name="Grupo 1116" transform="translate(9.081)">
          <path id="Trazado_581" data-name="Trazado 581" d="M11.953,7.457a1.431,1.431,0,0,1-1.431-1.431V2.563a1.431,1.431,0,0,1,2.862,0V6.026A1.431,1.431,0,0,1,11.953,7.457Z" transform="translate(-10.522 -1.132)" fill="#f96985"/>
        </g>
        <g id="Grupo_1117" data-name="Grupo 1117" transform="translate(9.081 14.699)">
          <path id="Trazado_582" data-name="Trazado 582" d="M11.953,22.861a1.431,1.431,0,0,1-1.431-1.431V17.968a1.431,1.431,0,0,1,2.862,0V21.43A1.431,1.431,0,0,1,11.953,22.861Z" transform="translate(-10.522 -16.537)" fill="#f96985"/>
        </g>
        <g id="Grupo_1118" data-name="Grupo 1118" transform="translate(0 9.081)">
          <path id="Trazado_583" data-name="Trazado 583" d="M5.9,13.511H2.436a1.431,1.431,0,1,1,0-2.862H5.9a1.431,1.431,0,1,1,0,2.862Z" transform="translate(-1.005 -10.649)" fill="#f96985"/>
        </g>
        <g id="Grupo_1119" data-name="Grupo 1119" transform="translate(14.699 9.081)">
          <path id="Trazado_584" data-name="Trazado 584" d="M21.3,13.511H17.841a1.431,1.431,0,0,1,0-2.862H21.3a1.431,1.431,0,1,1,0,2.862Z" transform="translate(-16.41 -10.649)" fill="#f96985"/>
        </g>
        <g id="Grupo_1120" data-name="Grupo 1120" transform="translate(2.66 2.66)">
          <path id="Trazado_585" data-name="Trazado 585" d="M7.672,9.23A1.426,1.426,0,0,1,6.66,8.811L4.212,6.363A1.431,1.431,0,0,1,6.236,4.339L8.684,6.787A1.431,1.431,0,0,1,7.672,9.23Z" transform="translate(-3.792 -3.919)" fill="#f96985"/>
        </g>
        <g id="Grupo_1121" data-name="Grupo 1121" transform="translate(13.053 13.053)">
          <path id="Trazado_586" data-name="Trazado 586" d="M18.565,20.123a1.428,1.428,0,0,1-1.012-.42L15.1,17.256a1.431,1.431,0,0,1,2.024-2.025l2.448,2.448a1.432,1.432,0,0,1-1.012,2.444Z" transform="translate(-14.685 -14.812)" fill="#f96985"/>
        </g>
        <g id="Grupo_1122" data-name="Grupo 1122" transform="translate(2.66 13.053)">
          <path id="Trazado_587" data-name="Trazado 587" d="M5.223,20.123a1.432,1.432,0,0,1-1.011-2.444L6.66,15.231a1.431,1.431,0,0,1,2.024,2.025L6.236,19.7A1.428,1.428,0,0,1,5.223,20.123Z" transform="translate(-3.792 -14.812)" fill="#f96985"/>
        </g>
        <g id="Grupo_1123" data-name="Grupo 1123" transform="translate(13.053 2.66)">
          <path id="Trazado_588" data-name="Trazado 588" d="M16.116,9.23A1.431,1.431,0,0,1,15.1,6.787l2.447-2.448a1.431,1.431,0,1,1,2.025,2.024L17.129,8.811A1.427,1.427,0,0,1,16.116,9.23Z" transform="translate(-14.685 -3.919)" fill="#f96985"/>
        </g>
      </g>
      <g id="Grupo_1133" data-name="Grupo 1133" transform="translate(100.749 5.672)">
        <g id="Grupo_1125" data-name="Grupo 1125" transform="translate(6.272 0)">
          <path id="Trazado_589" data-name="Trazado 589" d="M113.546,11.144a1.431,1.431,0,0,1-1.431-1.431V7.321a1.431,1.431,0,0,1,2.862,0V9.712A1.431,1.431,0,0,1,113.546,11.144Z" transform="translate(-112.115 -5.89)" fill="#f96985"/>
        </g>
        <g id="Grupo_1126" data-name="Grupo 1126" transform="translate(6.272 10.152)">
          <path id="Trazado_590" data-name="Trazado 590" d="M113.546,21.784a1.431,1.431,0,0,1-1.431-1.431V17.961a1.431,1.431,0,1,1,2.862,0v2.391A1.431,1.431,0,0,1,113.546,21.784Z" transform="translate(-112.115 -16.53)" fill="#f96985"/>
        </g>
        <g id="Grupo_1127" data-name="Grupo 1127" transform="translate(0 6.272)">
          <path id="Trazado_591" data-name="Trazado 591" d="M109.364,15.325h-2.391a1.431,1.431,0,1,1,0-2.862h2.391a1.431,1.431,0,0,1,0,2.862Z" transform="translate(-105.542 -12.463)" fill="#f96985"/>
        </g>
        <g id="Grupo_1128" data-name="Grupo 1128" transform="translate(10.152 6.272)">
          <path id="Trazado_592" data-name="Trazado 592" d="M120,15.325h-2.391a1.431,1.431,0,0,1,0-2.862H120a1.431,1.431,0,0,1,0,2.862Z" transform="translate(-116.182 -12.463)" fill="#f96985"/>
        </g>
        <g id="Grupo_1129" data-name="Grupo 1129" transform="translate(1.837 1.837)">
          <path id="Trazado_593" data-name="Trazado 593" d="M110.589,12.368a1.425,1.425,0,0,1-1.011-.419l-1.691-1.691a1.431,1.431,0,0,1,2.024-2.024L111.6,9.926a1.431,1.431,0,0,1-1.012,2.443Z" transform="translate(-107.467 -7.816)" fill="#f96985"/>
        </g>
        <g id="Grupo_1130" data-name="Grupo 1130" transform="translate(9.015 9.015)">
          <path id="Trazado_594" data-name="Trazado 594" d="M118.113,19.892a1.428,1.428,0,0,1-1.012-.42l-1.691-1.691a1.431,1.431,0,1,1,2.024-2.024l1.691,1.691a1.432,1.432,0,0,1-1.011,2.444Z" transform="translate(-114.99 -15.338)" fill="#f96985"/>
        </g>
        <g id="Grupo_1131" data-name="Grupo 1131" transform="translate(1.837 9.015)">
          <path id="Trazado_595" data-name="Trazado 595" d="M108.9,19.892a1.432,1.432,0,0,1-1.011-2.444l1.691-1.691a1.431,1.431,0,0,1,2.024,2.024l-1.691,1.691A1.428,1.428,0,0,1,108.9,19.892Z" transform="translate(-107.467 -15.338)" fill="#f96985"/>
        </g>
        <g id="Grupo_1132" data-name="Grupo 1132" transform="translate(9.015 1.837)">
          <path id="Trazado_596" data-name="Trazado 596" d="M116.422,12.368a1.431,1.431,0,0,1-1.012-2.443L117.1,8.235a1.431,1.431,0,1,1,2.024,2.024l-1.691,1.691A1.425,1.425,0,0,1,116.422,12.368Z" transform="translate(-114.99 -7.816)" fill="#f96985"/>
        </g>
      </g>
      <g id="Grupo_1149" data-name="Grupo 1149" transform="translate(130.41 70.334)">
        <g id="Grupo_1125-2" data-name="Grupo 1125" transform="translate(3.29 0)">
          <path id="Trazado_589-2" data-name="Trazado 589" d="M112.866,8.646a.75.75,0,0,1-.751-.751V6.641a.751.751,0,0,1,1.5,0V7.9A.751.751,0,0,1,112.866,8.646Z" transform="translate(-112.115 -5.89)" fill="#f96985"/>
        </g>
        <g id="Grupo_1126-2" data-name="Grupo 1126" transform="translate(3.29 5.326)">
          <path id="Trazado_590-2" data-name="Trazado 590" d="M112.866,19.286a.75.75,0,0,1-.751-.751V17.281a.751.751,0,0,1,1.5,0v1.254A.751.751,0,0,1,112.866,19.286Z" transform="translate(-112.115 -16.53)" fill="#f96985"/>
        </g>
        <g id="Grupo_1127-2" data-name="Grupo 1127" transform="translate(0 3.29)">
          <path id="Trazado_591-2" data-name="Trazado 591" d="M107.547,13.965h-1.254a.751.751,0,1,1,0-1.5h1.254a.751.751,0,1,1,0,1.5Z" transform="translate(-105.542 -12.463)" fill="#f96985"/>
        </g>
        <g id="Grupo_1128-2" data-name="Grupo 1128" transform="translate(5.326 3.29)">
          <path id="Trazado_592-2" data-name="Trazado 592" d="M118.187,13.965h-1.254a.751.751,0,1,1,0-1.5h1.254a.751.751,0,1,1,0,1.5Z" transform="translate(-116.182 -12.463)" fill="#f96985"/>
        </g>
        <g id="Grupo_1129-2" data-name="Grupo 1129" transform="translate(0.964 0.964)">
          <path id="Trazado_593-2" data-name="Trazado 593" d="M109.105,10.2a.747.747,0,0,1-.531-.22l-.887-.887a.751.751,0,1,1,1.062-1.062l.887.887a.751.751,0,0,1-.531,1.281Z" transform="translate(-107.467 -7.816)" fill="#f96985"/>
        </g>
        <g id="Grupo_1130-2" data-name="Grupo 1130" transform="translate(4.73 4.729)">
          <path id="Trazado_594-2" data-name="Trazado 594" d="M116.629,17.727a.749.749,0,0,1-.531-.22l-.887-.887a.751.751,0,0,1,1.062-1.062l.887.887a.751.751,0,0,1-.531,1.282Z" transform="translate(-114.99 -15.338)" fill="#f96985"/>
        </g>
        <g id="Grupo_1131-2" data-name="Grupo 1131" transform="translate(0.964 4.729)">
          <path id="Trazado_595-2" data-name="Trazado 595" d="M108.218,17.727a.751.751,0,0,1-.531-1.282l.887-.887a.751.751,0,1,1,1.062,1.062l-.887.887A.749.749,0,0,1,108.218,17.727Z" transform="translate(-107.467 -15.338)" fill="#f96985"/>
        </g>
        <g id="Grupo_1132-2" data-name="Grupo 1132" transform="translate(4.73 0.964)">
          <path id="Trazado_596-2" data-name="Trazado 596" d="M115.742,10.2a.751.751,0,0,1-.531-1.281l.887-.887A.751.751,0,1,1,117.159,9.1l-.887.887A.747.747,0,0,1,115.742,10.2Z" transform="translate(-114.99 -7.816)" fill="#f96985"/>
        </g>
      </g>
      <g id="Grupo_1151" data-name="Grupo 1151" transform="translate(-28.59 59.277)">
        <g id="Grupo_1125-3" data-name="Grupo 1125" transform="translate(3.29 0)">
          <path id="Trazado_589-3" data-name="Trazado 589" d="M112.866,8.646a.75.75,0,0,1-.751-.751V6.641a.751.751,0,0,1,1.5,0V7.9A.751.751,0,0,1,112.866,8.646Z" transform="translate(-112.115 -5.89)" fill="#f96985"/>
        </g>
        <g id="Grupo_1126-3" data-name="Grupo 1126" transform="translate(3.29 5.326)">
          <path id="Trazado_590-3" data-name="Trazado 590" d="M112.866,19.286a.75.75,0,0,1-.751-.751V17.281a.751.751,0,0,1,1.5,0v1.254A.751.751,0,0,1,112.866,19.286Z" transform="translate(-112.115 -16.53)" fill="#f96985"/>
        </g>
        <g id="Grupo_1127-3" data-name="Grupo 1127" transform="translate(0 3.29)">
          <path id="Trazado_591-3" data-name="Trazado 591" d="M107.547,13.965h-1.254a.751.751,0,1,1,0-1.5h1.254a.751.751,0,1,1,0,1.5Z" transform="translate(-105.542 -12.463)" fill="#f96985"/>
        </g>
        <g id="Grupo_1128-3" data-name="Grupo 1128" transform="translate(5.326 3.29)">
          <path id="Trazado_592-3" data-name="Trazado 592" d="M118.187,13.965h-1.254a.751.751,0,1,1,0-1.5h1.254a.751.751,0,1,1,0,1.5Z" transform="translate(-116.182 -12.463)" fill="#f96985"/>
        </g>
        <g id="Grupo_1129-3" data-name="Grupo 1129" transform="translate(0.964 0.964)">
          <path id="Trazado_593-3" data-name="Trazado 593" d="M109.105,10.2a.747.747,0,0,1-.531-.22l-.887-.887a.751.751,0,1,1,1.062-1.062l.887.887a.751.751,0,0,1-.531,1.281Z" transform="translate(-107.467 -7.816)" fill="#f96985"/>
        </g>
        <g id="Grupo_1130-3" data-name="Grupo 1130" transform="translate(4.73 4.729)">
          <path id="Trazado_594-3" data-name="Trazado 594" d="M116.629,17.727a.749.749,0,0,1-.531-.22l-.887-.887a.751.751,0,0,1,1.062-1.062l.887.887a.751.751,0,0,1-.531,1.282Z" transform="translate(-114.99 -15.338)" fill="#f96985"/>
        </g>
        <g id="Grupo_1131-3" data-name="Grupo 1131" transform="translate(0.964 4.729)">
          <path id="Trazado_595-3" data-name="Trazado 595" d="M108.218,17.727a.751.751,0,0,1-.531-1.282l.887-.887a.751.751,0,1,1,1.062,1.062l-.887.887A.749.749,0,0,1,108.218,17.727Z" transform="translate(-107.467 -15.338)" fill="#f96985"/>
        </g>
        <g id="Grupo_1132-3" data-name="Grupo 1132" transform="translate(4.73 0.964)">
          <path id="Trazado_596-3" data-name="Trazado 596" d="M115.742,10.2a.751.751,0,0,1-.531-1.281l.887-.887A.751.751,0,1,1,117.159,9.1l-.887.887A.747.747,0,0,1,115.742,10.2Z" transform="translate(-114.99 -7.816)" fill="#f96985"/>
        </g>
      </g>
      <g id="Grupo_1142" data-name="Grupo 1142" transform="translate(3.814 100.895)">
        <g id="Grupo_1134" data-name="Grupo 1134" transform="translate(6.272 0)">
          <path id="Trazado_597" data-name="Trazado 597" d="M11.953,110.943a1.431,1.431,0,0,1-1.431-1.431V107.12a1.431,1.431,0,1,1,2.862,0v2.391A1.431,1.431,0,0,1,11.953,110.943Z" transform="translate(-10.522 -105.689)" fill="#f96985"/>
        </g>
        <g id="Grupo_1135" data-name="Grupo 1135" transform="translate(6.272 10.152)">
          <path id="Trazado_598" data-name="Trazado 598" d="M11.953,121.583a1.431,1.431,0,0,1-1.431-1.431V117.76a1.431,1.431,0,1,1,2.862,0v2.391A1.431,1.431,0,0,1,11.953,121.583Z" transform="translate(-10.522 -116.329)" fill="#f96985"/>
        </g>
        <g id="Grupo_1136" data-name="Grupo 1136" transform="translate(0 6.272)">
          <path id="Trazado_599" data-name="Trazado 599" d="M7.771,115.124H5.38a1.431,1.431,0,0,1,0-2.862H7.771a1.431,1.431,0,0,1,0,2.862Z" transform="translate(-3.949 -112.262)" fill="#f96985"/>
        </g>
        <g id="Grupo_1137" data-name="Grupo 1137" transform="translate(10.151 6.272)">
          <path id="Trazado_600" data-name="Trazado 600" d="M18.411,115.124H16.019a1.431,1.431,0,0,1,0-2.862h2.392a1.431,1.431,0,0,1,0,2.862Z" transform="translate(-14.588 -112.262)" fill="#f96985"/>
        </g>
        <g id="Grupo_1138" data-name="Grupo 1138" transform="translate(1.837 1.837)">
          <path id="Trazado_601" data-name="Trazado 601" d="M9,112.168a1.428,1.428,0,0,1-1.012-.42l-1.691-1.691a1.431,1.431,0,0,1,2.025-2.024l1.691,1.691A1.432,1.432,0,0,1,9,112.168Z" transform="translate(-5.874 -107.615)" fill="#f96985"/>
        </g>
        <g id="Grupo_1139" data-name="Grupo 1139" transform="translate(9.015 9.016)">
          <path id="Trazado_602" data-name="Trazado 602" d="M16.519,119.691a1.428,1.428,0,0,1-1.012-.419l-1.691-1.692a1.431,1.431,0,0,1,2.025-2.024l1.691,1.692a1.431,1.431,0,0,1-1.012,2.443Z" transform="translate(-13.397 -115.138)" fill="#f96985"/>
        </g>
        <g id="Grupo_1140" data-name="Grupo 1140" transform="translate(1.837 9.016)">
          <path id="Trazado_603" data-name="Trazado 603" d="M7.305,119.691a1.431,1.431,0,0,1-1.012-2.443l1.691-1.692a1.431,1.431,0,0,1,2.025,2.024l-1.691,1.692A1.427,1.427,0,0,1,7.305,119.691Z" transform="translate(-5.874 -115.138)" fill="#f96985"/>
        </g>
        <g id="Grupo_1141" data-name="Grupo 1141" transform="translate(9.015 1.837)">
          <path id="Trazado_604" data-name="Trazado 604" d="M14.828,112.168a1.432,1.432,0,0,1-1.011-2.444l1.691-1.691a1.431,1.431,0,0,1,2.024,2.024l-1.691,1.691A1.428,1.428,0,0,1,14.828,112.168Z" transform="translate(-13.397 -107.615)" fill="#f96985"/>
        </g>
      </g>
      <g id="Grupo_1143" data-name="Grupo 1143" transform="translate(5.899 6.026)">
        <circle id="Elipse_25" data-name="Elipse 25" cx="5.618" cy="5.618" r="5.618" transform="translate(0)" fill="#f96985"/>
      </g>
      <g id="Grupo_1144" data-name="Grupo 1144" transform="translate(104.571 9.494)">
        <circle id="Elipse_26" data-name="Elipse 26" cx="3.88" cy="3.88" r="3.88" fill="#f96985"/>
      </g>
      <g id="Grupo_1148" data-name="Grupo 1148" transform="translate(132.415 72.339)">
        <ellipse id="Elipse_26-2" data-name="Elipse 26" cx="2.036" cy="2.036" rx="2.036" ry="2.036" transform="translate(0 0)" fill="#f96985"/>
      </g>
      <g id="Grupo_1150" data-name="Grupo 1150" transform="translate(-26.585 61.282)">
        <ellipse id="Elipse_26-3" data-name="Elipse 26" cx="2.036" cy="2.036" rx="2.036" ry="2.036" transform="translate(0 0)" fill="#f96985"/>
      </g>
      <g id="Grupo_1145" data-name="Grupo 1145" transform="translate(7.636 104.718)">
        <circle id="Elipse_27" data-name="Elipse 27" cx="3.88" cy="3.88" r="3.88" fill="#f96985"/>
      </g>
    </g>
  </g>
</svg>
