<svg xmlns="http://www.w3.org/2000/svg" xmlns:xlink="http://www.w3.org/1999/xlink" width="91.927" height="91.927" viewBox="0 0 91.927 91.927">
  <defs>
    <radialGradient id="radial-gradient" cx="0.076" cy="0.019" r="1.465" gradientTransform="translate(0.001)" gradientUnits="objectBoundingBox">
      <stop offset="0" stop-color="#f6f6f7"/>
      <stop offset="0.477" stop-color="#f9f9fa"/>
      <stop offset="0.715" stop-color="#fff"/>
    </radialGradient>
  </defs>
  <g id="Grupo_25254" data-name="Grupo 25254" transform="translate(-2371.33 -1017.716)">
    <g id="Grupo_25250" data-name="Grupo 25250" transform="translate(2371.33 1017.716)">
      <g id="Grupo_18423" data-name="Grupo 18423" transform="translate(0 0)">
        <g id="Grupo_18421" data-name="Grupo 18421">
          <g id="Grupo_18420" data-name="Grupo 18420">
            <g id="Grupo_18419" data-name="Grupo 18419">
              <path id="Trazado_40936" data-name="Trazado 40936" d="M286.55,2191.684a45.964,45.964,0,1,1-45.963-45.962A45.963,45.963,0,0,1,286.55,2191.684Z" transform="translate(-194.623 -2145.721)" fill="#fff"/>
            </g>
          </g>
        </g>
        <path id="Trazado_40937" data-name="Trazado 40937" d="M286.23,2191.334a45.963,45.963,0,1,0-45.963,45.965A45.782,45.782,0,0,0,286.23,2191.334Z" transform="translate(-194.303 -2145.372)" fill="url(#radial-gradient)"/>
        <path id="Trazado_40938" data-name="Trazado 40938" d="M272.56,2188.562a35.084,35.084,0,1,0-35.084,35.084A34.953,34.953,0,0,0,272.56,2188.562Z" transform="translate(-191.373 -2142.446)" fill="none" stroke="#3487ad" stroke-miterlimit="10" stroke-width="4"/>
        <g id="Grupo_18422" data-name="Grupo 18422" transform="translate(8.143 25.805)">
          <path id="Trazado_40939" data-name="Trazado 40939" d="M279.682,2164.488a45.969,45.969,0,0,1-79.137,45.773,45.823,45.823,0,0,0,79.137-45.773Z" transform="translate(-200.545 -2164.488)" fill="#eceef0"/>
        </g>
      </g>
      <g id="Grupo_18481" data-name="Grupo 18481" transform="translate(22.041 21.501)">
        <g id="Grupo_16470" data-name="Grupo 16470" transform="translate(0 6.987)">
          <g id="Grupo_16468" data-name="Grupo 16468" transform="translate(0.141)">
            <path id="Trazado_39114" data-name="Trazado 39114" d="M299.633,189.1a6.035,6.035,0,1,1-6.034-6.035A6.034,6.034,0,0,1,299.633,189.1Z" transform="translate(-286.809 -182.311)" fill="#fff"/>
            <path id="Trazado_39115" data-name="Trazado 39115" d="M293.608,195.9a6.789,6.789,0,1,1,6.789-6.789A6.8,6.8,0,0,1,293.608,195.9Zm0-12.07a5.28,5.28,0,1,0,5.28,5.281A5.287,5.287,0,0,0,293.608,183.829Z" transform="translate(-286.818 -182.32)" fill="#37474f"/>
          </g>
          <g id="Grupo_16469" data-name="Grupo 16469" transform="translate(0 12.141)">
            <path id="Trazado_39116" data-name="Trazado 39116" d="M299.775,203.049H287.424V201.23a6.175,6.175,0,0,1,6.176-6.175h0a6.175,6.175,0,0,1,6.175,6.175Z" transform="translate(-286.67 -194.3)" fill="#fff"/>
            <path id="Trazado_39117" data-name="Trazado 39117" d="M299.785,203.813H287.433a.754.754,0,0,1-.754-.754V201.24a6.931,6.931,0,0,1,13.861,0v1.819A.755.755,0,0,1,299.785,203.813Zm-11.6-1.509H299.03V201.24a5.421,5.421,0,0,0-10.842,0Z" transform="translate(-286.679 -194.309)" fill="#37474f"/>
          </g>
        </g>
        <g id="Grupo_16471" data-name="Grupo 16471" transform="translate(9.187 0)">
          <ellipse id="Elipse_841" data-name="Elipse 841" cx="7.899" cy="7.899" rx="7.899" ry="7.899" transform="matrix(0.216, -0.976, 0.976, 0.216, 0, 15.424)" fill="#3487ad"/>
          <path id="Trazado_39118" data-name="Trazado 39118" d="M305.162,193.485a8.654,8.654,0,1,1,8.653-8.654A8.664,8.664,0,0,1,305.162,193.485Zm0-15.8a7.144,7.144,0,1,0,7.144,7.144A7.152,7.152,0,0,0,305.162,177.687Z" transform="translate(-295.742 -175.411)" fill="#37474f"/>
        </g>
        <g id="Grupo_16472" data-name="Grupo 16472" transform="translate(9.769 16.659)">
          <path id="Trazado_39119" data-name="Trazado 39119" d="M313.239,203.08H297.071V200.7a8.084,8.084,0,0,1,8.084-8.084h0a8.084,8.084,0,0,1,8.084,8.084Z" transform="translate(-296.317 -191.862)" fill="#3487ad"/>
          <path id="Trazado_39120" data-name="Trazado 39120" d="M313.248,203.843H297.08a.754.754,0,0,1-.754-.754v-2.38a8.838,8.838,0,0,1,17.677,0v2.38A.754.754,0,0,1,313.248,203.843Zm-15.413-1.509h14.658v-1.625a7.329,7.329,0,1,0-14.658,0Z" transform="translate(-296.326 -191.871)" fill="#37474f"/>
        </g>
        <g id="Grupo_16476" data-name="Grupo 16476" transform="translate(17.857 18.008)">
          <g id="Grupo_16473" data-name="Grupo 16473">
            <path id="Trazado_39121" data-name="Trazado 39121" d="M307.263,197.06a9.028,9.028,0,1,0,12.736-.9A9.028,9.028,0,0,0,307.263,197.06Zm11.442,9.93a6.122,6.122,0,1,1-.611-8.636A6.122,6.122,0,0,1,318.705,206.99Z" transform="translate(-304.304 -193.194)" fill="#fff"/>
            <path id="Trazado_39122" data-name="Trazado 39122" d="M314.077,212.769a9.782,9.782,0,1,1,.7-.024Q314.428,212.769,314.077,212.769Zm.027-18.056q-.3,0-.6.021a8.22,8.22,0,0,0-5.665,2.829h0a8.274,8.274,0,0,0,6.236,13.7q.3,0,.6-.021a8.273,8.273,0,0,0-.57-16.526Zm-.023,15.15a6.877,6.877,0,1,1,.5-.017C314.411,209.857,314.245,209.863,314.081,209.863Zm.014-12.241a5.364,5.364,0,1,0,3.514,1.311A5.358,5.358,0,0,0,314.1,197.622Z" transform="translate(-304.313 -193.203)" fill="#37474f"/>
          </g>
          <g id="Grupo_16474" data-name="Grupo 16474" transform="translate(16.288 15.334)">
            <path id="Trazado_39123" data-name="Trazado 39123" d="M321.143,209.091l5.251,4.558Z" transform="translate(-320.389 -208.337)" fill="#fff"/>
            <path id="Trazado_39124" data-name="Trazado 39124" d="M326.4,214.413a.749.749,0,0,1-.494-.185l-5.251-4.557a.755.755,0,0,1,.989-1.14l5.251,4.558a.755.755,0,0,1-.5,1.325Z" transform="translate(-320.398 -208.346)" fill="#37474f"/>
          </g>
          <g id="Grupo_16475" data-name="Grupo 16475" transform="translate(19.431 17.923)">
            <path id="Trazado_39125" data-name="Trazado 39125" d="M333.067,219.518h0a1.625,1.625,0,0,1-2.293.163L324.8,214.5a1.626,1.626,0,0,1-.162-2.293h0a1.626,1.626,0,0,1,2.293-.162l5.97,5.182A1.624,1.624,0,0,1,333.067,219.518Z" transform="translate(-323.492 -210.894)" fill="#fff"/>
            <path id="Trazado_39126" data-name="Trazado 39126" d="M331.847,220.841a2.364,2.364,0,0,1-1.557-.581l-5.969-5.181a2.38,2.38,0,0,1,3.12-3.595l5.969,5.182a2.382,2.382,0,0,1,.238,3.357h0A2.374,2.374,0,0,1,331.847,220.841Zm-5.966-8.429a.87.87,0,0,0-.571,1.527l5.97,5.182a.871.871,0,0,0,1.141-1.315l-5.97-5.181A.867.867,0,0,0,325.881,212.412Z" transform="translate(-323.501 -210.903)" fill="#37474f"/>
          </g>
        </g>
        <g id="Grupo_16479" data-name="Grupo 16479" transform="translate(32.249 6.987)">
          <g id="Grupo_16477" data-name="Grupo 16477" transform="translate(4.522)">
            <path id="Trazado_39127" data-name="Trazado 39127" d="M323.736,183.065v0Z" transform="translate(-322.982 -182.311)" fill="#fff"/>
            <path id="Trazado_39128" data-name="Trazado 39128" d="M323.745,192.874a.754.754,0,0,1-.754-.754v-9.045a.754.754,0,1,1,1.509,0v9.045A.754.754,0,0,1,323.745,192.874Z" transform="translate(-322.991 -182.32)" fill="#37474f"/>
          </g>
          <g id="Grupo_16478" data-name="Grupo 16478" transform="translate(0 4.522)">
            <path id="Trazado_39129" data-name="Trazado 39129" d="M328.315,187.531h0Z" transform="translate(-318.516 -186.777)" fill="#fff"/>
            <path id="Trazado_39130" data-name="Trazado 39130" d="M328.324,188.295h-9.045a.754.754,0,1,1,0-1.509h9.045a.754.754,0,1,1,0,1.509Z" transform="translate(-318.525 -186.786)" fill="#37474f"/>
          </g>
        </g>
        <g id="Grupo_16482" data-name="Grupo 16482" transform="translate(5.102 32.721)">
          <g id="Grupo_16480" data-name="Grupo 16480" transform="translate(3.344)">
            <path id="Trazado_39131" data-name="Trazado 39131" d="M295.764,208.478v0Z" transform="translate(-295.01 -207.724)" fill="#fff"/>
            <path id="Trazado_39132" data-name="Trazado 39132" d="M295.773,215.929a.755.755,0,0,1-.754-.754v-6.687a.754.754,0,0,1,1.509,0v6.688A.754.754,0,0,1,295.773,215.929Z" transform="translate(-295.019 -207.733)" fill="#37474f"/>
          </g>
          <g id="Grupo_16481" data-name="Grupo 16481" transform="translate(0 3.344)">
            <path id="Trazado_39133" data-name="Trazado 39133" d="M299.149,211.78h0Z" transform="translate(-291.708 -211.026)" fill="#fff"/>
            <path id="Trazado_39134" data-name="Trazado 39134" d="M299.159,212.544h-6.687a.754.754,0,1,1,0-1.509h6.687a.754.754,0,1,1,0,1.509Z" transform="translate(-291.717 -211.035)" fill="#37474f"/>
          </g>
        </g>
      </g>
    </g>
  </g>
</svg>
