<svg xmlns="http://www.w3.org/2000/svg" width="113.687" height="81.573" viewBox="0 0 113.687 81.573">
  <g id="Grupo_25237" data-name="Grupo 25237" transform="translate(-3035.047 5387.821)">
    <g id="Grupo_17393" data-name="Grupo 17393" transform="translate(3035.047 -5387.821)">
      <g id="Grupo_17392" data-name="Grupo 17392">
        <path id="Trazado_40015" data-name="Trazado 40015" d="M-204.643,105.916a8.333,8.333,0,0,0-1.209.175,64.376,64.376,0,0,1-16.866,1.375,92.265,92.265,0,0,1-12.828-1.921c-.519-.19-1.03-.412-1.56-.566-8.89-2.591-17.059-6.538-24.047-12.727a29.212,29.212,0,0,0-2.99-2.373c-1.5-1.014-2.623-.715-3.571.832-.34.555-.637,1.136-.954,1.705-1.442,3.634-2.823,7.29-4.025,11.012-.815,3.292-1.71,6.567-2.428,9.88a86.775,86.775,0,0,0-1.866,21.819c.026.658-.015,1.32-.025,1.98a69.592,69.592,0,0,0,1.2,7.89,46.926,46.926,0,0,0,5.3,12.982,29.243,29.243,0,0,0,17,11.833,4.071,4.071,0,0,0,.748.068c.109-.838.264-1.664.445-2.486s.388-1.636.605-2.448c-.218.812-.425,1.626-.605,2.448s-.335,1.648-.445,2.486a28.1,28.1,0,0,0,23.609-4.153c.292-.2.6-.362.907-.542a51.772,51.772,0,0,0,12.52-13.9c6.73-10.662,10.693-22.358,12.915-34.7a48.79,48.79,0,0,0,.974-8.035C-201.816,106.488-202.574,105.8-204.643,105.916Zm-61.936,14.029c2.581-2.948,5.778-4.448,9.714-3.8,4.773.779,7.545,3.859,8.934,8.314.212.682.816,1.593.205,2.135-.466.414-1.306-.2-1.969-.383-.826-.232-1.641-.5-2.46-.753-4.853-1.345-9.718-2.646-14.551-4.061C-268.347,120.91-266.915,120.41-266.579,119.946Zm33.449,31.373c-4.131,2.332-8.553,2.677-13.137,1.928-.5-.082-1-.149-1.506-.223a1.465,1.465,0,0,0-.3.08,1.251,1.251,0,0,0-.7.719,1.251,1.251,0,0,1,.7-.719,1.465,1.465,0,0,1,.3-.08c-3.486-1.193-6.954-2.416-9.857-4.81a19.2,19.2,0,0,1-4.858-5.562,14.111,14.111,0,0,1-1.99-4.564l18.761,5.107,17.178,4.851A13.936,13.936,0,0,1-233.13,151.319Zm15.283-15.463c-.922-.268-1.831-.586-2.745-.881l-15.574-4.306a2.5,2.5,0,0,1,1.14-1.557,10.068,10.068,0,0,1,10.264-3.467c4.658,1.049,7.187,4.306,8.417,8.72C-215.771,136.425-215.817,136.447-217.847,135.856Z" transform="translate(315.528 -89.289)" fill="#37474f"/>
        <path id="Trazado_40016" data-name="Trazado 40016" d="M-288.838,148.485a46.919,46.919,0,0,0,5.3,12.981c-8.045,3.25-15.66,2.524-22.692-2.643-5.867-4.31-9.754-10.214-12.864-16.669a77.452,77.452,0,0,1-7.284-26.967c.587-1.708,1.087-2.031,2.984-1.64a51.029,51.029,0,0,0,33.811-4.5c.495-.245.949-.571,1.422-.859l.36-.323.036.088,2.047-1.035c-.815,3.292-1.71,6.567-2.428,9.88a86.774,86.774,0,0,0-1.866,21.819c.026.658-.015,1.319-.025,1.979a15.96,15.96,0,0,0-7.048,3.4,14.527,14.527,0,0,0-5.288,7.26c-.222.624-.414,1.142.645.82,3.192-.971,6.462-1.675,9.6-2.84Zm-25.381-17.66c3.666,3.79,9.815,3.513,12.639-.57a7.071,7.071,0,0,0,1.67-3.2c.252-.774.166-1.323-.913-1.032-4.4,1.189-8.8,2.373-13.22,3.507C-315.356,129.871-314.959,130.288-314.218,130.825Z" transform="translate(326.382 -93.168)" fill="#37474f"/>
      </g>
    </g>
  </g>
</svg>
