<svg xmlns="http://www.w3.org/2000/svg" width="47.519" height="116.096" viewBox="0 0 47.519 116.096">
  <g id="Grupo_25239" data-name="Grupo 25239" transform="translate(-2442.646 5405.556)">
    <path id="Trazado_40010" data-name="Trazado 40010" d="M-953.9,191.778c-.7-.5-1.436-.967-2.094-1.523a1.614,1.614,0,0,1-.376-2.469,15.041,15.041,0,0,1,1.577-1.935,5.688,5.688,0,0,0,1.636-4.044,20.6,20.6,0,0,0-1.551-8.229,20.166,20.166,0,0,1-.974-12.368,44.2,44.2,0,0,0,.194-13.913c-.533-4.7-1.085-9.394-.491-14.122a19.741,19.741,0,0,1,.877-4.274c1.561-4.3,1.708-8.763,1.79-13.247.018-1.007,0-2.014,0-3.1-.9.151-1.43.677-1.371,1.519a24.679,24.679,0,0,1-1.75,9.774,57.036,57.036,0,0,0-3.02,14.212,16.8,16.8,0,0,1-.336,1.8c-1.058-.557-1.657-.362-1.841.735a1.26,1.26,0,0,1-.409.587c-.4.386-3.028.3-3.689-.173a1.943,1.943,0,0,1-.744-2.214c.2-.838.332-1.693.493-2.534a1.976,1.976,0,0,0-.436-.082c-.544.138-1.086.283-1.628.427a11.494,11.494,0,0,1,.323-1.613,5.216,5.216,0,0,1,2.3-2.842c2.313-1.422,3.184-3.751,3.325-6.294A68.131,68.131,0,0,1-960.2,113.2a22.481,22.481,0,0,0,.428-4.553c.114-3.128.122-6.26.226-9.389.072-2.139.836-3.121,2.882-3.843,1.96-.691,3.931-1.351,5.895-2.03a3.53,3.53,0,0,0,.559-.278c1.652-.929,1.8-1.686,1.051-3.417a31.126,31.126,0,0,1-1.831-5.158,6.924,6.924,0,0,1,5.7-8.734c.058-.006.11-.077.165-.119h1.253a16.1,16.1,0,0,1,2.276.675,6.386,6.386,0,0,1,3.756,5.807,11.545,11.545,0,0,1-1.612,7.1,4.693,4.693,0,0,0-.317.656c-.7,1.643-.378,2.557,1.235,3.279.915.41,1.875.724,2.824,1.055,1.242.433,2.5.829,3.742,1.261a3.8,3.8,0,0,1,2.673,3.819c.068,2.6.192,5.216.067,7.813a15.422,15.422,0,0,0,1.021,6.629,32.748,32.748,0,0,1,1.9,9.979,46.75,46.75,0,0,0,.815,5.546c.29,1.469,1.389,2.348,2.5,3.314a15.57,15.57,0,0,1,2.466,3.5c.08.125-.116.558-.3.683a.858.858,0,0,1-.748.013,5.027,5.027,0,0,0-1.218-.655c.126.607.218,1.224.383,1.819.523,1.88.179,2.737-1.6,3.805l-.839-.658c-.528.363-1.139,1.03-1.522-.143-2.7-1.363-2.458-4.1-3.048-6.466-1-4.036-1.972-8.087-3.182-12.063a40.764,40.764,0,0,1-1.231-8.109,6.844,6.844,0,0,0-.459-2.021c-.052.825-.112,1.647-.152,2.472a71.476,71.476,0,0,0,1.421,16.456,52.082,52.082,0,0,1,.5,10.482c-.089,4.026-.7,8.039-.789,12.064a49.025,49.025,0,0,0,.58,8.715,26.082,26.082,0,0,1-.6,10.315c-.584,2.424-1.156,4.862-1.527,7.325a9.827,9.827,0,0,0,2.027,7.04c.1.144.219.269.315.414,1.123,1.68,1.064,2.062-.5,3.387-.289.246-.553.522-.829.783h-2.506a11.3,11.3,0,0,1-3.6-9.157c.069-3.49-.465-6.991-.705-10.489-.19-2.762-.333-5.527-.5-8.29-.034-.551-.068-1.1-.149-1.65-.571-3.8-1.185-7.6-1.724-11.408-.391-2.766-.689-5.546-1.028-8.319l-.357-.046a9.391,9.391,0,0,0-.316,1.071c-.952,5.536-1.914,11.07-2.814,16.614a14.227,14.227,0,0,0,.012,2.779,33.134,33.134,0,0,1,.19,5.062c-.567,4.8-1.324,9.566-1.121,14.425a16.555,16.555,0,0,1-.353,3.3c-.378,2.329-1.688,4.219-2.983,6.108Z" transform="translate(3410.688 -5481.238)" fill="#37474f"/>
    <path id="Trazado_40011" data-name="Trazado 40011" d="M-931.756,110.31a11.8,11.8,0,0,0-2.58-7.4,7.871,7.871,0,0,0-12.19-.485,12.007,12.007,0,0,0-.148,15.679,7.837,7.837,0,0,0,11.947.1A11.468,11.468,0,0,0-931.756,110.31Zm-10.862-1.486c-.227.092-.432.144-.588-.133-.2-.364-.415-.338-.659-.009-.3.4-.523.3-.616-.151-.072-.349-.205-.478-.558-.288-.489.264-.6.024-.51-.424.071-.353-.027-.536-.42-.452a.329.329,0,0,1-.4-.211c-.091-.179.023-.272.126-.374.3-.294.23-.483-.146-.646-.453-.2-.422-.44.014-.625.391-.166.415-.372.119-.649-.112-.106-.187-.209-.1-.382a.325.325,0,0,1,.407-.19c.406.075.465-.137.4-.474-.086-.465.034-.685.527-.4.362.212.478.006.553-.312.11-.472.335-.521.616-.124.25.353.438.288.669-.027.263-.36.5-.266.592.129.1.43.26.505.652.286.317-.178.537-.029.449.349-.1.421-.064.629.464.581.351-.032.505.232.241.523-.3.327-.278.513.13.7.374.169.406.428.016.607s-.495.367-.15.681c.121.11.2.242.081.381-.322.379.047.474.257.542a.4.4,0,0,0,.558-.391c.027-.287-.015-.574.411-.653.375-.07.412.207.542.394.29.416.553.378.825-.014.133-.191.188-.465.552-.382s.352.357.4.616c.087.48.335.589.752.336.2-.123.37-.311.66-.082s.17.423.1.658c-.148.507-.01.693.52.681.248-.006.477-.071.635.237.17.332-.078.448-.233.624-.332.374-.273.634.211.826.241.1.451.155.444.5-.006.319-.219.361-.426.449-.52.22-.58.461-.194.859.182.187.349.33.181.634-.15.272-.332.235-.575.2-.539-.071-.721.16-.562.686.073.242.172.444-.11.654-.258.193-.413.057-.612-.056-.492-.281-.688-.19-.8.375-.048.252-.069.482-.4.544-.313.057-.391-.158-.524-.34-.325-.445-.574-.44-.893.04-.138.209-.252.362-.543.286s-.328-.259-.36-.507c-.076-.582-.3-.683-.823-.377-.211.123-.378.21-.615.018s-.161-.379-.089-.606c.181-.566,0-.8-.576-.712-.261.037-.418.023-.562-.233-.159-.285,0-.406.165-.578.413-.433.356-.672-.207-.9-.218-.089-.419-.146-.416-.457s.195-.371.416-.461c.564-.228.637-.475.19-.887-.3-.273-.191-.5-.089-.771a1.175,1.175,0,0,1,.3-.058c.348.024.794.137.864-.332.09-.6-.388-.083-.579-.221C-942.584,107.844-942.533,108.442-942.618,108.824Zm.852-2.929a1.781,1.781,0,0,0-1.731-1.851,1.792,1.792,0,0,0-1.8,1.717,1.792,1.792,0,0,0,1.733,1.852A1.788,1.788,0,0,0-941.767,105.895Zm3.44,3.164c-.226.628.279.786.618.8s.762-.46.708-.674c-.109-.432-.64-.533-1.062-.606C-938.549,108.489-938.258,108.911-938.326,109.059Zm1.618,1.821c.638.012.674,0,.682-.241.011-.31-.437-1.161-.612-1.164-.134,0-.759.673-.7.8C-937.208,110.563-937.193,111.018-936.708,110.88Zm-.994,1.349c-.416.136-.783.283-.656.811.05.207-.132.582.324.493a1.71,1.71,0,0,0,1.084-.557C-936.888,112.9-937.6,112.227-937.7,112.229Zm-2.805-1.346c.486,0,.763-.219.787-.6.01-.142-.621-.857-.712-.793a1.519,1.519,0,0,0-.575,1.116C-941.067,111.068-940.658,110.791-940.507,110.883Zm1.726-1.9c-.044-.076.229-.5-.24-.4-.409.082-.951.158-1.044.607-.044.212.381.653.711.662C-938.961,109.86-938.6,109.621-938.782,108.985Zm.044,4.062c0-.478-.234-.806-.574-.82-.147-.006-.858.645-.792.737a1.554,1.554,0,0,0,1.07.568C-938.565,113.611-938.815,113.206-938.737,113.047Zm2.224-1.763c-.59-.207-.8.215-.806.594,0,.328.44.761.66.708.445-.106.53-.645.6-1.067S-936.366,111.333-936.513,111.284Zm-3.887-.03c-.6,0-.644.009-.6.26.067.427.16.953.588,1.07.21.057.654-.374.672-.709C-939.725,111.521-939.915,111.118-940.4,111.254Zm1.906.3a.475.475,0,0,0,.472-.524.47.47,0,0,0-.525-.486.465.465,0,0,0-.48.528C-939.021,111.4-938.827,111.553-938.494,111.559Zm-1.453,7.242-.123-.07c-.258.521-.764.218-1.141.345-.035.012-.055.066-.09.083a3.31,3.31,0,0,1-1.033-.662.224.224,0,0,1,.014-.058c-.548-.163-.367-.734-.605-1.062-.122-.169-.2-.3,0-.395.323-.15.269-.3.088-.524a.163.163,0,0,1,.119-.278c.387.006.282-.294.4-.467a1.484,1.484,0,0,1,1.042-.483c.161-.011.348.3.566-.023a.171.171,0,0,1,.3.049c.068.34.215.415.523.266a.17.17,0,0,1,.246.179c-.044.3-.008.486.359.482.155,0,.19.141.133.278-.031.076-.133.19-.115.209a.747.747,0,0,1,.036,1.017c-.082.143.195.507-.29.523-.122,0-.15.132-.132.242C-939.6,118.768-939.694,118.9-939.947,118.8Zm.137-1.645a1.222,1.222,0,0,0-1.227-1.167,1.2,1.2,0,0,0-1.125,1.195,1.166,1.166,0,0,0,1.216,1.152A1.187,1.187,0,0,0-939.809,117.156Zm-3.068-11.346a.628.628,0,0,1-.655.679.6.6,0,0,1-.646-.614.614.614,0,0,1,.616-.711A.626.626,0,0,1-942.878,105.81Z" transform="translate(3407.108 -5485.893)" fill="#fff" opacity="0.75"/>
  </g>
</svg>
