<svg xmlns="http://www.w3.org/2000/svg" width="188.748" height="242.661" viewBox="0 0 188.748 242.661">
  <g id="Grupo_25241" data-name="Grupo 25241" transform="translate(370.38 -621.172)">
    <path id="Trazado_40213" data-name="Trazado 40213" d="M-262.376,708.6q0,8.019,0,16.037.009,46.023.02,92.044c0,6.6-2.2,12.129-9.569,12.272-7.335.141-10.012-4.97-9.793-11.831.063-1.956.01-3.917.01-5.875q0-25.948.006-51.9v-9.566l-2.859-.319c-.28,2.73-.8,5.458-.807,8.188-.078,18.929-.155,37.862-.006,56.792.057,7.032-.521,14.022-9.191,14.483-8.813.466-10.152-6.34-10.155-13.47-.022-35.248-.6-70.51.255-105.737.2-8.245,5.191-16.372,8.349-25.64,9.121,0,19.4-1.3,29.1.506,5.46,1.015,11.849,6.126,14.567,11.151,9.526,17.61,8.456,37.177,7.182,56.415-.147,2.211-4.076,4.172-6.252,6.248-2.04-2.509-5.609-4.884-5.842-7.551-.8-9.068-.159-18.251-.58-27.368-.231-5.033-1.48-10.02-2.271-15.029Zm-21.214,30.856c10.465-6.549,6.1-15.821,5.021-24.081-.653-5-3.059-9.759-4.678-14.63-1.891,4.937-4.776,9.744-5.446,14.841C-289.765,723.775-294.186,733.141-283.59,739.461Z" transform="translate(62.814 34.853)" fill="#37474f"/>
    <path id="Trazado_40214" data-name="Trazado 40214" d="M-355.474,708.168c-.735,11.418-1.268,22.853-2.293,34.245-.5,5.572,3.739,14.873-5.221,15.306-9.8.474-7.135-9.44-6.847-15.188.664-13.275,1.241-26.8,4.29-39.644,3.6-15.159,10.647-19.141,26.239-19.121,7.122.01,14.245,0,21.614,0,13.824,45.049,5.164,90.421,7.034,135.221.268,6.44-3.363,10.04-9.491,9.86-6.9-.2-9.344-5.227-9.366-11.451-.071-18.935,0-37.872.014-56.807q.006-5.218,0-10.437l-2.616-.214c-.214,3.134-.608,6.265-.615,9.4q-.079,27.915.008,55.83c.024,7.233-1.677,13.777-10.244,13.648-8.07-.12-9.348-6.434-9.327-13.3.108-32.648.047-65.3.045-97.945v-9.193Zm24.248,31.078c11.453-7.506,5.378-17.671,4.584-26.721-.353-4.041-2.642-7.914-4.053-11.862-1.8,3.945-4.9,7.813-5.14,11.853C-336.377,721.494-343.026,731.806-331.226,739.246Z" transform="translate(0 34.978)" fill="#37474f"/>
    <path id="Trazado_40215" data-name="Trazado 40215" d="M-289.056,697.7c1.926,2.855,5.315,5.593,5.556,8.586,2.669,33.161,4.676,66.373,7.286,99.54.639,8.113-1.372,14.124-9.809,14.976-8.294.839-11.2-5.293-11.788-12.533-1.8-22.114-3.426-44.242-5.329-66.348-.318-3.694-1.678-7.3-2.557-10.945l-3.379.231a72.221,72.221,0,0,0-1.48,7.7c-1.956,22.755-3.959,45.505-5.628,68.284-.572,7.816-3.132,14.095-11.784,13.6-8.733-.5-10.563-7.138-9.973-14.92,2.555-33.827,4.9-67.672,7.619-101.488.184-2.287,2.787-4.38,4.266-6.563L-315.572,692c.758,3.465,2.8,7.249,2.032,10.334-2.13,8.562.77,14.236,7.665,18.761,7.526-9.017,7.355-9,6.261-20.376-.178-1.854,1.893-3.923,2.924-5.893Z" transform="translate(31.037 42.882)" fill="#37474f"/>
    <path id="Trazado_40216" data-name="Trazado 40216" d="M-312.5,708.55l-10.483,5.815c-11.678-.082-17.626-5.538-18.228-16.721-.635-11.764,6.246-21.548,17.289-22.245a309.717,309.717,0,0,1,40.1.016c11.19.747,18.573,11.7,17.246,23.3-1.242,10.883-7.567,15.943-19.409,15.531q-3.819-1.434-7.633-2.871C-298.474,700.857-305.874,707.3-312.5,708.55Zm15.219-18c-1.956-2.918-3.31-5.456-5.231-7.445-.478-.5-3.2.345-4.172,1.3-3.3,3.269-6.269,6.867-8.541,9.413Z" transform="translate(27.961 26.332)" fill="#37474f"/>
    <path id="Trazado_40217" data-name="Trazado 40217" d="M-312.924,691.4c-11.216-.1-19.5-8.709-19.241-20a19.593,19.593,0,0,1,19.3-19.225c10.692-.122,20,9.121,19.933,19.786A19.448,19.448,0,0,1-312.924,691.4Z" transform="translate(36.671 4.656)" fill="#37474f"/>
    <path id="Trazado_40218" data-name="Trazado 40218" d="M-267.862,680.743a17.773,17.773,0,0,1-16.979,17.891,17.584,17.584,0,0,1-18.134-16.644,17.867,17.867,0,0,1,17.387-18.508A17.918,17.918,0,0,1-267.862,680.743Z" transform="translate(64.676 15.511)" fill="#37474f"/>
    <path id="Trazado_40219" data-name="Trazado 40219" d="M-342.208,663.543a17.611,17.611,0,0,1,17.848,16.975,17.7,17.7,0,0,1-17.73,18.14,17.363,17.363,0,0,1-17.15-17.55A17.166,17.166,0,0,1-342.208,663.543Z" transform="translate(10.691 15.568)" fill="#37474f"/>
    <path id="Trazado_40220" data-name="Trazado 40220" d="M-290.648,731.079c-10.6-6.32-6.175-15.686-5.1-23.87.67-5.1,3.555-9.9,5.446-14.841,1.619,4.87,4.025,9.634,4.678,14.63C-284.547,715.258-280.183,724.53-290.648,731.079Z" transform="translate(69.871 43.235)" fill="#fff"/>
    <path id="Trazado_40221" data-name="Trazado 40221" d="M-346.991,730.971c-11.8-7.439-5.15-17.752-4.609-26.731.243-4.039,3.339-7.908,5.14-11.853,1.411,3.949,3.7,7.821,4.053,11.862C-341.614,713.3-335.538,723.465-346.991,730.971Z" transform="translate(15.765 43.254)" fill="#fff"/>
    <path id="Trazado_40222" data-name="Trazado 40222" d="M-326.576,693.516c6.622-1.25,14.022-7.692,18.882,2.826-1.031,1.969-3.1,4.039-2.924,5.893,1.094,11.377,1.264,11.359-6.261,20.376-6.894-4.525-9.795-10.2-7.665-18.761C-323.776,700.765-325.818,696.981-326.576,693.516Z" transform="translate(42.041 41.366)" fill="#fff"/>
    <path id="Trazado_40223" data-name="Trazado 40223" d="M-310.022,686.534l-17.944,3.271c2.271-2.546,5.244-6.144,8.541-9.413.968-.958,3.694-1.8,4.172-1.3C-313.332,681.078-311.978,683.616-310.022,686.534Z" transform="translate(40.707 30.35)" fill="#fff"/>
    <g id="Grupo_17733" data-name="Grupo 17733" transform="translate(-253.181 621.172)">
      <path id="Trazado_40224" data-name="Trazado 40224" d="M-36.381,828.444c2.6-3.3,3.65-7.52,1.2-13.419-3.414-8.227,1.323-17.865,9.116-22.3a19.814,19.814,0,0,1,24.589,3.6A20.175,20.175,0,0,1,.881,820.552c-4.665,7.617-13.942,10.75-22.738,8.707C-26.64,828.148-31.8,828.65-36.381,828.444Zm3.517-18.134a16.421,16.421,0,0,0,15.523,16.8A16.826,16.826,0,0,0-.306,811.653c.5-8.914-7.061-16.979-16.063-17.138A16.231,16.231,0,0,0-32.864,810.31Z" transform="translate(36.381 -789.999)" fill="#37474f"/>
      <path id="Trazado_40226" data-name="Trazado 40226" d="M-34.027,808.815a16.231,16.231,0,0,1,16.495-15.8c9,.159,16.562,8.224,16.063,17.138A16.826,16.826,0,0,1-18.5,825.615,16.421,16.421,0,0,1-34.027,808.815Z" transform="translate(37.544 -788.504)" fill="#fff"/>
    </g>
    <g id="Grupo_17734" data-name="Grupo 17734" transform="translate(-245.982 632.608)">
      <g id="Grupo_17392" data-name="Grupo 17392">
        <path id="Trazado_40015" data-name="Trazado 40015" d="M-260.673,93.051a1.884,1.884,0,0,0-.273.04,14.564,14.564,0,0,1-3.816.311,20.874,20.874,0,0,1-2.9-.435c-.118-.043-.233-.093-.353-.128a13.891,13.891,0,0,1-5.44-2.879,6.61,6.61,0,0,0-.676-.537.5.5,0,0,0-.808.188c-.077.125-.144.257-.216.386-.326.822-.639,1.649-.91,2.491-.184.745-.387,1.486-.549,2.235a19.633,19.633,0,0,0-.422,4.936c.006.149,0,.3-.006.448a15.736,15.736,0,0,0,.272,1.785,10.616,10.616,0,0,0,1.2,2.937,6.615,6.615,0,0,0,3.845,2.677.92.92,0,0,0,.169.015c.025-.189.06-.377.1-.562s.088-.37.137-.554c-.049.184-.1.368-.137.554s-.076.373-.1.562a6.356,6.356,0,0,0,5.341-.94c.066-.044.137-.082.205-.123a11.713,11.713,0,0,0,2.832-3.144,21.693,21.693,0,0,0,2.922-7.85,11.031,11.031,0,0,0,.22-1.818C-260.034,93.18-260.205,93.024-260.673,93.051Zm-14.012,3.174a2.3,2.3,0,0,1,2.2-.861,2.46,2.46,0,0,1,2.021,1.881c.048.154.185.36.046.483-.106.094-.3-.044-.446-.087-.187-.053-.371-.113-.557-.17-1.1-.3-2.2-.6-3.292-.919C-275.085,96.443-274.761,96.329-274.685,96.224Zm7.567,7.1a4.4,4.4,0,0,1-2.972.436c-.113-.019-.227-.034-.341-.05a.333.333,0,0,0-.068.018.283.283,0,0,0-.159.163.283.283,0,0,1,.159-.163.333.333,0,0,1,.068-.018,6.852,6.852,0,0,1-2.23-1.088,4.344,4.344,0,0,1-1.1-1.258,3.192,3.192,0,0,1-.45-1.033l4.244,1.155,3.886,1.1A3.153,3.153,0,0,1-267.118,103.322Zm3.458-3.5c-.209-.061-.414-.133-.621-.2l-3.523-.974a.565.565,0,0,1,.258-.352,2.278,2.278,0,0,1,2.322-.784,2.509,2.509,0,0,1,1.9,1.973C-263.191,99.953-263.2,99.958-263.66,99.824Z" transform="translate(285.759 -89.289)" fill="#37474f"/>
        <path id="Trazado_40016" data-name="Trazado 40016" d="M-317.888,116.321a10.616,10.616,0,0,0,1.2,2.937,5,5,0,0,1-5.134-.6,9.719,9.719,0,0,1-2.91-3.771,17.522,17.522,0,0,1-1.648-6.1c.133-.386.246-.459.675-.371a11.544,11.544,0,0,0,7.649-1.018c.112-.055.215-.129.322-.194l.082-.073.008.02.463-.234c-.184.745-.387,1.486-.549,2.235a19.63,19.63,0,0,0-.422,4.936c.006.149,0,.3-.006.448a3.611,3.611,0,0,0-1.594.77,3.287,3.287,0,0,0-1.2,1.642c-.05.141-.094.258.146.185.722-.22,1.462-.379,2.171-.642Zm-5.742-4a1.862,1.862,0,0,0,2.859-.129,1.6,1.6,0,0,0,.378-.723c.057-.175.038-.3-.207-.233-1,.269-1.992.537-2.991.793C-323.888,112.11-323.8,112.2-323.63,112.326Z" transform="translate(326.382 -103.807)" fill="#37474f"/>
      </g>
    </g>
  </g>
</svg>
