<svg xmlns="http://www.w3.org/2000/svg" width="118.375" height="97.013" viewBox="0 0 118.375 97.013">
  <g id="Grupo_25238" data-name="Grupo 25238" transform="translate(-2718.097 5395.015)">
    <path id="Trazado_40012" data-name="Trazado 40012" d="M-573.935,97.144a4.316,4.316,0,0,1-3.042,2.471,11.963,11.963,0,0,1-4.546.367c-2.687-.225-5.4-.18-8.1-.249-2.467-.063-4.935-.218-7.4-.169-3.3.067-6.605.28-9.906.456-1.014.054-2.021.219-3.035.284a1.561,1.561,0,0,0-1.614,1.479,54.9,54.9,0,0,0-1.077,13.164,27.632,27.632,0,0,0,1.194,6.48,20.554,20.554,0,0,1,.3,10.4c-.653,3.444-1.261,6.909-1.633,10.392a93.708,93.708,0,0,1-2.049,12.526,27.249,27.249,0,0,0-.6,8.222,6.02,6.02,0,0,0,1.98,4.138,3.7,3.7,0,0,1,.938,4.083,1.757,1.757,0,0,1-1.752,1.317c-1.482.036-2.966.053-4.447,0a1.719,1.719,0,0,1-1.745-2.381,28.63,28.63,0,0,0,.617-8.484c-.112-1.7-.466-3.388-.669-5.086a43.7,43.7,0,0,1,.094-8.339c.241-3.349.009-6.731.019-10.1.007-2.06.065-4.119.14-6.177a2.25,2.25,0,0,0-.682-2.044,1.6,1.6,0,0,0-.775,1.659c-.021,4.006-.09,8.014-.026,12.018.039,2.4.39,4.8.417,7.207a44.916,44.916,0,0,1-.342,6.585,35.418,35.418,0,0,0,.086,12.473c.037.17.049.344.076.517.229,1.444-.375,2.122-1.848,2.149-.684.013-1.367.125-2.05.191h-2.268c-2.037-.988-2.564-2.5-1.537-4.565.479-.959,1.09-1.854,1.555-2.82,1.163-2.421.945-4.968.607-7.521-.642-4.859-1.553-9.7-1.815-14.584a74.14,74.14,0,0,0-1.655-9.647,30.649,30.649,0,0,1,.87-16.139c1.019-2.881.647-5.843.181-8.789-.379-2.4-.7-4.817-1.021-7.23-.076-.569-.293-.916-.895-.98a91.459,91.459,0,0,0-15.646-.789c-2.752.175-5.519.092-8.278.171q-3.089.088-6.175.3a6.853,6.853,0,0,1-5.44-1.551,3.979,3.979,0,0,1-.957-1.322,1.761,1.761,0,0,1,1.492-2.66,13.579,13.579,0,0,1,2.426-.125,2.864,2.864,0,0,0,2.923-1.466,1.268,1.268,0,0,1,1.034-.489,5,5,0,0,1,1.981.6,10.74,10.74,0,0,0,6.037,1.307,112.784,112.784,0,0,0,15.746-1.679c2.486-.39,5-.6,7.515-.788a12.818,12.818,0,0,1,2.589.27c.79.1,1.582.247,2.128-.553a2.174,2.174,0,0,0-.021-2.46,3.416,3.416,0,0,0-.388-.576c-2.329-2.672-2.425-5.832-1.819-9.055a4.883,4.883,0,0,1,3.349-3.508c.32-.129.646-.24.97-.359H-620c1.892.575,3.406,1.629,3.716,3.691a23.224,23.224,0,0,1,.178,4.753,12.07,12.07,0,0,1-1.852,5.2,1.975,1.975,0,0,0,.031,2.367c.557.7,1.293.51,2.071.46a34.118,34.118,0,0,1,5.974-.1c4.286.492,8.533,1.327,12.817,1.835,2.907.344,5.85.423,8.78.508a7.833,7.833,0,0,0,2.516-.55c1.153-.371,2.264-.87,3.412-1.257s1.667-.129,1.9,1.035c.15.741.585.852,1.172.858,1.1.011,2.2.034,3.3.007a1.9,1.9,0,0,1,2.046,1.257Z" transform="translate(3398.185 -5470.697)" fill="#37474f"/>
    <g id="Grupo_17390" data-name="Grupo 17390" transform="translate(2718.097 -5395.015)">
      <path id="Trazado_40013" data-name="Trazado 40013" d="M-668.183,75.7c-6.462,8.671-11.152,20.177-11.152,36.194,0,15.752,4.868,27.079,11.152,35.93h-6.108c-5.575-7.345-11.593-18.673-11.593-35.93.089-17.432,6.018-28.76,11.593-36.194Z" transform="translate(685.884 -75.687)" fill="#37474f"/>
      <path id="Trazado_40014" data-name="Trazado 40014" d="M-536.415,147.805c6.284-8.761,11.148-20.264,11.148-36.194,0-15.841-4.778-27.168-11.148-35.929h6.018c5.664,7.255,11.593,18.583,11.593,36.019,0,17.343-5.929,28.584-11.593,36.1Z" transform="translate(637.18 -75.682)" fill="#37474f"/>
    </g>
  </g>
</svg>
