<?xml version="1.0" encoding="iso-8859-1"?>
<!-- Generator: Adobe Illustrator 19.0.0, SVG Export Plug-In . SVG Version: 6.00 Build 0)  -->
<svg version="1.1" id="Layer_1" xmlns="http://www.w3.org/2000/svg" xmlns:xlink="http://www.w3.org/1999/xlink" x="0px" y="0px"
	 viewBox="0 0 508 508" style="enable-background:new 0 0 508 508;" xml:space="preserve">
<circle style="fill:#84DBFF;" cx="254" cy="254" r="254"/>
<polygon style="fill:#FFFFFF;" points="186.8,83.6 361.6,83.6 361.6,390.8 109.6,390.8 109.6,160.8 "/>
<g>
	<polygon style="fill:#E6E9EE;" points="186.8,160.8 109.6,160.8 186.8,83.6 	"/>
	<rect x="144.4" y="188.8" style="fill:#E6E9EE;" width="176" height="9.6"/>
	<rect x="144.4" y="232.4" style="fill:#E6E9EE;" width="176" height="9.6"/>
	<rect x="144.4" y="276" style="fill:#E6E9EE;" width="176" height="9.6"/>
	<rect x="144.4" y="319.6" style="fill:#E6E9EE;" width="176" height="9.6"/>
</g>
<rect x="324.845" y="268.346" transform="matrix(-0.7071 0.7071 -0.7071 -0.7071 779.0918 267.9815)" style="fill:#2B3B4E;" width="18.4" height="53.999"/>
<path style="fill:#324A5E;" d="M229.2,190.8c-25.6,25.6-25.6,67.2,0,93.2c25.6,25.6,67.2,25.6,93.2,0c25.6-25.6,25.6-67.2,0-93.2
	S255.2,164.8,229.2,190.8z M310.4,272c-19.2,19.2-50.4,19.2-69.2,0s-19.2-50.4,0-69.2c19.2-19.2,50.4-19.2,69.2,0
	C329.6,221.6,329.6,252.8,310.4,272z"/>
<path style="fill:#FF7058;" d="M344.8,286.4l-20,20c-1.6,1.6-1.6,4.4,0,6l61.2,61.2c1.6,1.6,4.4,1.6,6,0l20-20c1.6-1.6,1.6-4.4,0-6
	l-61.2-61.2C349.2,284.8,346.4,284.8,344.8,286.4z"/>
<g>
</g>
<g>
</g>
<g>
</g>
<g>
</g>
<g>
</g>
<g>
</g>
<g>
</g>
<g>
</g>
<g>
</g>
<g>
</g>
<g>
</g>
<g>
</g>
<g>
</g>
<g>
</g>
<g>
</g>
</svg>
