<svg id="Layer_1" data-name="Layer 1" xmlns="http://www.w3.org/2000/svg" width="64" height="64" viewBox="0 0 64 64">
  <defs>
    <style>
      .cls-1 {
        fill: #e28223;
      }

      .cls-2 {
        opacity: 0.2;
      }

      .cls-3 {
        fill: #231f20;
      }

      .cls-4 {
        fill: #e0e0d1;
      }

      .cls-5 {
        fill: #fff;
      }
    </style>
  </defs>
  <g>
    <circle class="cls-1" cx="32" cy="32" r="32"/>
    <g>
      <g>
        <g class="cls-2">
          <path class="cls-3" d="M36,23V14H19a3,3,0,0,0-3,3V51a3,3,0,0,0,3,3H45a3,3,0,0,0,3-3V26H39A3,3,0,0,1,36,23Z"/>
        </g>
        <path class="cls-4" d="M36,21V12H19a3,3,0,0,0-3,3V49a3,3,0,0,0,3,3H45a3,3,0,0,0,3-3V24H39A3,3,0,0,1,36,21Z"/>
        <g class="cls-2">
          <polygon class="cls-3" points="37.02 23.29 48 33 48 24 37.02 23.29"/>
        </g>
        <path class="cls-5" d="M36,12v9a3,3,0,0,0,3,3h9Z"/>
      </g>
      <g class="cls-2">
        <rect class="cls-3" x="22" y="22" width="9.63" height="2"/>
      </g>
      <g class="cls-2">
        <rect class="cls-3" x="22" y="32" width="20" height="2"/>
      </g>
      <g class="cls-2">
        <rect class="cls-3" x="22" y="27" width="20" height="2"/>
      </g>
      <g class="cls-2">
        <rect class="cls-3" x="22" y="37" width="20" height="2"/>
      </g>
      <g class="cls-2">
        <rect class="cls-3" x="22" y="42" width="20" height="2"/>
      </g>
    </g>
  </g>
</svg>
