<svg id="Layer_1" data-name="Layer 1" xmlns="http://www.w3.org/2000/svg" width="64" height="64" viewBox="0 0 64 64">
  <defs>
    <style>
      .cls-1 {
        fill: #77b3d4;
      }

      .cls-2 {
        opacity: 0.2;
      }

      .cls-3 {
        fill: #231f20;
      }

      .cls-4 {
        fill: #fff;
      }

      .cls-5 {
        fill: #e0e0d1;
      }

      .cls-6 {
        fill: #e0995e;
      }

      .cls-7 {
        fill: #76c2af;
      }

      .cls-8 {
        fill: #c75c5c;
      }

      .cls-9 {
        fill: #4f5d73;
      }
    </style>
  </defs>
  <g>
    <circle class="cls-1" cx="32" cy="32" r="32"/>
    <g class="cls-2">
      <rect class="cls-3" x="12" y="14" width="40" height="38" rx="4"/>
    </g>
    <path class="cls-4" d="M12,21.5V46a4,4,0,0,0,4,4H48a4,4,0,0,0,4-4V21.5Z"/>
    <g class="cls-2">
      <path class="cls-3" d="M52,18a4,4,0,0,0-4-4H16a4,4,0,0,0-4,4v6H52Z"/>
    </g>
    <path class="cls-5" d="M52,16a4,4,0,0,0-4-4H16a4,4,0,0,0-4,4v6H52Z"/>
    <circle class="cls-6" cx="23" cy="17" r="2"/>
    <circle class="cls-7" cx="29" cy="17" r="2"/>
    <circle class="cls-8" cx="17" cy="17" r="2"/>
    <rect class="cls-9" x="16" y="28" width="12" height="18"/>
    <rect class="cls-5" x="32" y="28" width="16" height="2"/>
    <rect class="cls-5" x="32" y="32" width="16" height="2"/>
    <rect class="cls-5" x="32" y="36" width="16" height="2"/>
    <rect class="cls-5" x="32" y="40" width="16" height="2"/>
    <rect class="cls-5" x="32" y="44" width="16" height="2"/>
  </g>
</svg>
